<?xml version="1.0" encoding="UTF-8"?>
<svg width="1280px" height="560px" viewBox="0 0 1280 560" version="1.1" xmlns="http://www.w3.org/2000/svg" xmlns:xlink="http://www.w3.org/1999/xlink">
    <!-- Generator: Sketch 51.2 (57519) - http://www.bohemiancoding.com/sketch -->
    <title>kv_text</title>
    <desc>Created with Sketch.</desc>
    <defs></defs>
    <g id="kv_text" stroke="none" stroke-width="1" fill="none" fill-rule="evenodd">
        <path d="M88.748,133.578 L100.087,133.578 L100.087,136.062 L91.623,136.062 L91.623,140.363 L99.052,140.363 L99.052,142.709 L91.623,142.709 L91.623,150 L88.748,150 L88.748,133.578 Z M102.203,133.578 L105.078,133.578 L105.078,143.146 C105.078,143.698003 105.104833,144.257664 105.1585,144.825 C105.212167,145.392336 105.365499,145.902164 105.6185,146.3545 C105.871501,146.806836 106.254831,147.178665 106.7685,147.47 C107.282169,147.761335 108.006662,147.907 108.942,147.907 C109.877338,147.907 110.601831,147.761335 111.1155,147.47 C111.629169,147.178665 112.012499,146.806836 112.2655,146.3545 C112.518501,145.902164 112.671833,145.392336 112.7255,144.825 C112.779167,144.257664 112.806,143.698003 112.806,143.146 L112.806,133.578 L115.681,133.578 L115.681,144.089 C115.681,145.147005 115.520002,146.066996 115.198,146.849 C114.875998,147.631004 114.419836,148.286497 113.8295,148.8155 C113.239164,149.344503 112.530004,149.739332 111.702,150 C110.873996,150.260668 109.954005,150.391 108.942,150.391 C107.929995,150.391 107.010004,150.260668 106.182,150 C105.353996,149.739332 104.644836,149.344503 104.0545,148.8155 C103.464164,148.286497 103.008002,147.631004 102.686,146.849 C102.363998,146.066996 102.203,145.147005 102.203,144.089 L102.203,133.578 Z M118.993,133.578 L121.868,133.578 L121.868,147.516 L130.217,147.516 L130.217,150 L118.993,150 L118.993,133.578 Z M132.195,133.578 L135.07,133.578 L135.07,147.516 L143.419,147.516 L143.419,150 L132.195,150 L132.195,133.578 Z M144.776,142.502 L151.469,142.502 L151.469,144.986 L144.776,144.986 L144.776,142.502 Z M152.78,133.578 L166.074,133.578 L166.074,136.062 L160.853,136.062 L160.853,150 L157.978,150 L157.978,136.062 L152.78,136.062 L152.78,133.578 Z M167.983,133.578 L170.858,133.578 L170.858,150 L167.983,150 L167.983,133.578 Z M174.331,133.578 L178.379,133.578 L182.91,146.435 L182.956,146.435 L187.372,133.578 L191.374,133.578 L191.374,150 L188.637,150 L188.637,137.327 L188.591,137.327 L184.037,150 L181.668,150 L177.114,137.327 L177.068,137.327 L177.068,150 L174.331,150 L174.331,133.578 Z M194.824,133.578 L206.646,133.578 L206.646,136.062 L197.699,136.062 L197.699,140.363 L205.979,140.363 L205.979,142.709 L197.699,142.709 L197.699,147.516 L206.807,147.516 L206.807,150 L194.824,150 L194.824,133.578 Z" id="FULL-TIME" fill="#FEEE50"></path>
        <path d="M87.448,167.296 L91.948,167.296 L91.948,182.272 C91.948,183.136004 91.9899996,184.011996 92.074,184.9 C92.1580004,185.788004 92.397998,186.585996 92.794,187.294 C93.190002,188.002004 93.789996,188.583998 94.594,189.04 C95.398004,189.496002 96.5319927,189.724 97.996,189.724 C99.4600073,189.724 100.593996,189.496002 101.398,189.04 C102.202004,188.583998 102.801998,188.002004 103.198,187.294 C103.594002,186.585996 103.834,185.788004 103.918,184.9 C104.002,184.011996 104.044,183.136004 104.044,182.272 L104.044,167.296 L108.544,167.296 L108.544,183.748 C108.544,185.404008 108.292003,186.843994 107.788,188.068 C107.283997,189.292006 106.570005,190.317996 105.646,191.146 C104.721995,191.974004 103.612006,192.591998 102.316,193 C101.019994,193.408002 99.5800079,193.612 97.996,193.612 C96.4119921,193.612 94.9720065,193.408002 93.676,193 C92.3799935,192.591998 91.2700046,191.974004 90.346,191.146 C89.4219954,190.317996 88.7080025,189.292006 88.204,188.068 C87.6999975,186.843994 87.448,185.404008 87.448,183.748 L87.448,167.296 Z M113.548,167.296 L118.3,167.296 L130.036,186.232 L130.108,186.232 L130.108,167.296 L134.392,167.296 L134.392,193 L129.64,193 L117.94,174.1 L117.832,174.1 L117.832,193 L113.548,193 L113.548,167.296 Z M139.72,167.296 L150.376,167.296 C152.34401,167.296 154.047993,167.631997 155.488,168.304 C156.928007,168.976003 158.103995,169.893994 159.016,171.058 C159.928005,172.222006 160.605998,173.583992 161.05,175.144 C161.494002,176.704008 161.716,178.371991 161.716,180.148 C161.716,181.924009 161.494002,183.591992 161.05,185.152 C160.605998,186.712008 159.928005,188.073994 159.016,189.238 C158.103995,190.402006 156.928007,191.319997 155.488,191.992 C154.047993,192.664003 152.34401,193 150.376,193 L139.72,193 L139.72,167.296 Z M144.22,189.328 L148.648,189.328 C150.400009,189.328 151.833994,189.094002 152.95,188.626 C154.066006,188.157998 154.941997,187.510004 155.578,186.682 C156.214003,185.853996 156.645999,184.882006 156.874,183.766 C157.102001,182.649994 157.216,181.444006 157.216,180.148 C157.216,178.851994 157.102001,177.646006 156.874,176.53 C156.645999,175.413994 156.214003,174.442004 155.578,173.614 C154.941997,172.785996 154.066006,172.138002 152.95,171.67 C151.833994,171.201998 150.400009,170.968 148.648,170.968 L144.22,170.968 L144.22,189.328 Z M165.712,167.296 L184.216,167.296 L184.216,171.184 L170.212,171.184 L170.212,177.916 L183.172,177.916 L183.172,181.588 L170.212,181.588 L170.212,189.112 L184.468,189.112 L184.468,193 L165.712,193 L165.712,167.296 Z M188.392,167.296 L200.668,167.296 C203.500014,167.296 205.623993,167.907994 207.04,169.132 C208.456007,170.356006 209.164,172.059989 209.164,174.244 C209.164,175.468006 208.984002,176.481996 208.624,177.286 C208.263998,178.090004 207.844002,178.737998 207.364,179.23 C206.883998,179.722002 206.410002,180.075999 205.942,180.292 C205.473998,180.508001 205.132001,180.652 204.916,180.724 L204.916,180.796 C205.300002,180.844 205.713998,180.963999 206.158,181.156 C206.602002,181.348001 207.015998,181.653998 207.4,182.074 C207.784002,182.494002 208.101999,183.039997 208.354,183.712 C208.606001,184.384003 208.732,185.223995 208.732,186.232 C208.732,187.744008 208.845999,189.117994 209.074,190.354 C209.302001,191.590006 209.655998,192.471997 210.136,193 L205.312,193 C204.975998,192.447997 204.778,191.836003 204.718,191.164 C204.658,190.491997 204.628,189.844003 204.628,189.22 C204.628,188.043994 204.556001,187.030004 204.412,186.178 C204.267999,185.325996 204.004002,184.618003 203.62,184.054 C203.235998,183.489997 202.714003,183.076001 202.054,182.812 C201.393997,182.547999 200.548005,182.416 199.516,182.416 L192.892,182.416 L192.892,193 L188.392,193 L188.392,167.296 Z M192.892,178.996 L200.272,178.996 C201.712007,178.996 202.803996,178.654003 203.548,177.97 C204.292004,177.285997 204.664,176.260007 204.664,174.892 C204.664,174.075996 204.544001,173.410003 204.304,172.894 C204.063999,172.377997 203.734002,171.976001 203.314,171.688 C202.893998,171.399999 202.414003,171.208 201.874,171.112 C201.333997,171.016 200.776003,170.968 200.2,170.968 L192.892,170.968 L192.892,178.996 Z M236.164,193 L233.284,193 L232.6,189.976 C231.399994,191.344007 230.200006,192.291997 229,192.82 C227.799994,193.348003 226.420008,193.612 224.86,193.612 C222.93999,193.612 221.218008,193.258004 219.694,192.55 C218.169992,191.841996 216.880005,190.876006 215.824,189.652 C214.767995,188.427994 213.958003,187.000008 213.394,185.368 C212.829997,183.735992 212.548,181.996009 212.548,180.148 C212.548,178.323991 212.829997,176.596008 213.394,174.964 C213.958003,173.331992 214.767995,171.904006 215.824,170.68 C216.880005,169.455994 218.169992,168.484004 219.694,167.764 C221.218008,167.043996 222.93999,166.684 224.86,166.684 C226.252007,166.684 227.577994,166.869998 228.838,167.242 C230.098006,167.614002 231.219995,168.165996 232.204,168.898 C233.188005,169.630004 234.003997,170.547994 234.652,171.652 C235.300003,172.756006 235.707999,174.027993 235.876,175.468 L231.484,175.468 C231.363999,174.627996 231.106002,173.890003 230.71,173.254 C230.313998,172.617997 229.816003,172.084002 229.216,171.652 C228.615997,171.219998 227.944004,170.896001 227.2,170.68 C226.455996,170.463999 225.676004,170.356 224.86,170.356 C223.491993,170.356 222.310005,170.631997 221.314,171.184 C220.317995,171.736003 219.508003,172.473995 218.884,173.398 C218.259997,174.322005 217.798002,175.371994 217.498,176.548 C217.197999,177.724006 217.048,178.923994 217.048,180.148 C217.048,181.372006 217.197999,182.571994 217.498,183.748 C217.798002,184.924006 218.259997,185.973995 218.884,186.898 C219.508003,187.822005 220.317995,188.559997 221.314,189.112 C222.310005,189.664003 223.491993,189.94 224.86,189.94 C226.012006,189.964 227.031996,189.814002 227.92,189.49 C228.808004,189.165998 229.557997,188.698003 230.17,188.086 C230.782003,187.473997 231.243998,186.724004 231.556,185.836 C231.868002,184.947996 232.036,183.964005 232.06,182.884 L225.22,182.884 L225.22,179.464 L236.164,179.464 L236.164,193 Z M241.06,167.296 L253.336,167.296 C256.168014,167.296 258.291993,167.907994 259.708,169.132 C261.124007,170.356006 261.832,172.059989 261.832,174.244 C261.832,175.468006 261.652002,176.481996 261.292,177.286 C260.931998,178.090004 260.512002,178.737998 260.032,179.23 C259.551998,179.722002 259.078002,180.075999 258.61,180.292 C258.141998,180.508001 257.800001,180.652 257.584,180.724 L257.584,180.796 C257.968002,180.844 258.381998,180.963999 258.826,181.156 C259.270002,181.348001 259.683998,181.653998 260.068,182.074 C260.452002,182.494002 260.769999,183.039997 261.022,183.712 C261.274001,184.384003 261.4,185.223995 261.4,186.232 C261.4,187.744008 261.513999,189.117994 261.742,190.354 C261.970001,191.590006 262.323998,192.471997 262.804,193 L257.98,193 C257.643998,192.447997 257.446,191.836003 257.386,191.164 C257.326,190.491997 257.296,189.844003 257.296,189.22 C257.296,188.043994 257.224001,187.030004 257.08,186.178 C256.935999,185.325996 256.672002,184.618003 256.288,184.054 C255.903998,183.489997 255.382003,183.076001 254.722,182.812 C254.061997,182.547999 253.216005,182.416 252.184,182.416 L245.56,182.416 L245.56,193 L241.06,193 L241.06,167.296 Z M245.56,178.996 L252.94,178.996 C254.380007,178.996 255.471996,178.654003 256.216,177.97 C256.960004,177.285997 257.332,176.260007 257.332,174.892 C257.332,174.075996 257.212001,173.410003 256.972,172.894 C256.731999,172.377997 256.402002,171.976001 255.982,171.688 C255.561998,171.399999 255.082003,171.208 254.542,171.112 C254.001997,171.016 253.444003,170.968 252.868,170.968 L245.56,170.968 L245.56,178.996 Z M273.28,167.296 L278.068,167.296 L287.968,193 L283.144,193 L280.732,186.196 L270.472,186.196 L268.06,193 L263.416,193 L273.28,167.296 Z M271.696,182.776 L279.544,182.776 L275.692,171.724 L275.584,171.724 L271.696,182.776 Z M290.416,167.296 L301.072,167.296 C303.04001,167.296 304.743993,167.631997 306.184,168.304 C307.624007,168.976003 308.799995,169.893994 309.712,171.058 C310.624005,172.222006 311.301998,173.583992 311.746,175.144 C312.190002,176.704008 312.412,178.371991 312.412,180.148 C312.412,181.924009 312.190002,183.591992 311.746,185.152 C311.301998,186.712008 310.624005,188.073994 309.712,189.238 C308.799995,190.402006 307.624007,191.319997 306.184,191.992 C304.743993,192.664003 303.04001,193 301.072,193 L290.416,193 L290.416,167.296 Z M294.916,189.328 L299.344,189.328 C301.096009,189.328 302.529994,189.094002 303.646,188.626 C304.762006,188.157998 305.637997,187.510004 306.274,186.682 C306.910003,185.853996 307.341999,184.882006 307.57,183.766 C307.798001,182.649994 307.912,181.444006 307.912,180.148 C307.912,178.851994 307.798001,177.646006 307.57,176.53 C307.341999,175.413994 306.910003,174.442004 306.274,173.614 C305.637997,172.785996 304.762006,172.138002 303.646,171.67 C302.529994,171.201998 301.096009,170.968 299.344,170.968 L294.916,170.968 L294.916,189.328 Z M316.12,167.296 L320.62,167.296 L320.62,182.272 C320.62,183.136004 320.662,184.011996 320.746,184.9 C320.83,185.788004 321.069998,186.585996 321.466,187.294 C321.862002,188.002004 322.461996,188.583998 323.266,189.04 C324.070004,189.496002 325.203993,189.724 326.668,189.724 C328.132007,189.724 329.265996,189.496002 330.07,189.04 C330.874004,188.583998 331.473998,188.002004 331.87,187.294 C332.266002,186.585996 332.506,185.788004 332.59,184.9 C332.674,184.011996 332.716,183.136004 332.716,182.272 L332.716,167.296 L337.216,167.296 L337.216,183.748 C337.216,185.404008 336.964003,186.843994 336.46,188.068 C335.955997,189.292006 335.242005,190.317996 334.318,191.146 C333.393995,191.974004 332.284006,192.591998 330.988,193 C329.691994,193.408002 328.252008,193.612 326.668,193.612 C325.083992,193.612 323.644006,193.408002 322.348,193 C321.051994,192.591998 319.942005,191.974004 319.018,191.146 C318.093995,190.317996 317.380003,189.292006 316.876,188.068 C316.371997,186.843994 316.12,185.404008 316.12,183.748 L316.12,167.296 Z M349.276,167.296 L354.064,167.296 L363.964,193 L359.14,193 L356.728,186.196 L346.468,186.196 L344.056,193 L339.412,193 L349.276,167.296 Z M347.692,182.776 L355.54,182.776 L351.688,171.724 L351.58,171.724 L347.692,182.776 Z M363.964,167.296 L384.772,167.296 L384.772,171.184 L376.6,171.184 L376.6,193 L372.1,193 L372.1,171.184 L363.964,171.184 L363.964,167.296 Z M387.76,167.296 L406.264,167.296 L406.264,171.184 L392.26,171.184 L392.26,177.916 L405.22,177.916 L405.22,181.588 L392.26,181.588 L392.26,189.112 L406.516,189.112 L406.516,193 L387.76,193 L387.76,167.296 Z M87.736,205.296 L99.076,205.296 C100.900009,205.296 102.387994,205.559997 103.54,206.088 C104.692006,206.616003 105.579997,207.275996 106.204,208.068 C106.828003,208.860004 107.253999,209.723995 107.482,210.66 C107.710001,211.596005 107.824,212.459996 107.824,213.252 C107.824,214.044004 107.710001,214.901995 107.482,215.826 C107.253999,216.750005 106.828003,217.607996 106.204,218.4 C105.579997,219.192004 104.692006,219.845997 103.54,220.362 C102.387994,220.878003 100.900009,221.136 99.076,221.136 L92.236,221.136 L92.236,231 L87.736,231 L87.736,205.296 Z M92.236,217.464 L98.824,217.464 C99.3280025,217.464 99.8439974,217.392001 100.372,217.248 C100.900003,217.103999 101.385998,216.870002 101.83,216.546 C102.274002,216.221998 102.633999,215.790003 102.91,215.25 C103.186001,214.709997 103.324,214.032004 103.324,213.216 C103.324,212.375996 103.204001,211.680003 102.964,211.128 C102.723999,210.575997 102.400002,210.138002 101.992,209.814 C101.583998,209.489998 101.116003,209.268001 100.588,209.148 C100.059997,209.027999 99.496003,208.968 98.896,208.968 L92.236,208.968 L92.236,217.464 Z M111.748,205.296 L124.024,205.296 C126.856014,205.296 128.979993,205.907994 130.396,207.132 C131.812007,208.356006 132.52,210.059989 132.52,212.244 C132.52,213.468006 132.340002,214.481996 131.98,215.286 C131.619998,216.090004 131.200002,216.737998 130.72,217.23 C130.239998,217.722002 129.766002,218.075999 129.298,218.292 C128.829998,218.508001 128.488001,218.652 128.272,218.724 L128.272,218.796 C128.656002,218.844 129.069998,218.963999 129.514,219.156 C129.958002,219.348001 130.371998,219.653998 130.756,220.074 C131.140002,220.494002 131.457999,221.039997 131.71,221.712 C131.962001,222.384003 132.088,223.223995 132.088,224.232 C132.088,225.744008 132.201999,227.117994 132.43,228.354 C132.658001,229.590006 133.011998,230.471997 133.492,231 L128.668,231 C128.331998,230.447997 128.134,229.836003 128.074,229.164 C128.014,228.491997 127.984,227.844003 127.984,227.22 C127.984,226.043994 127.912001,225.030004 127.768,224.178 C127.623999,223.325996 127.360002,222.618003 126.976,222.054 C126.591998,221.489997 126.070003,221.076001 125.41,220.812 C124.749997,220.547999 123.904005,220.416 122.872,220.416 L116.248,220.416 L116.248,231 L111.748,231 L111.748,205.296 Z M116.248,216.996 L123.628,216.996 C125.068007,216.996 126.159996,216.654003 126.904,215.97 C127.648004,215.285997 128.02,214.260007 128.02,212.892 C128.02,212.075996 127.900001,211.410003 127.66,210.894 C127.419999,210.377997 127.090002,209.976001 126.67,209.688 C126.249998,209.399999 125.770003,209.208 125.23,209.112 C124.689997,209.016 124.132003,208.968 123.556,208.968 L116.248,208.968 L116.248,216.996 Z M148.036,208.356 C146.667993,208.356 145.486005,208.631997 144.49,209.184 C143.493995,209.736003 142.684003,210.473995 142.06,211.398 C141.435997,212.322005 140.974002,213.371994 140.674,214.548 C140.373999,215.724006 140.224,216.923994 140.224,218.148 C140.224,219.372006 140.373999,220.571994 140.674,221.748 C140.974002,222.924006 141.435997,223.973995 142.06,224.898 C142.684003,225.822005 143.493995,226.559997 144.49,227.112 C145.486005,227.664003 146.667993,227.94 148.036,227.94 C149.404007,227.94 150.585995,227.664003 151.582,227.112 C152.578005,226.559997 153.387997,225.822005 154.012,224.898 C154.636003,223.973995 155.097999,222.924006 155.398,221.748 C155.698002,220.571994 155.848,219.372006 155.848,218.148 C155.848,216.923994 155.698002,215.724006 155.398,214.548 C155.097999,213.371994 154.636003,212.322005 154.012,211.398 C153.387997,210.473995 152.578005,209.736003 151.582,209.184 C150.585995,208.631997 149.404007,208.356 148.036,208.356 Z M148.036,204.684 C149.95601,204.684 151.677992,205.043996 153.202,205.764 C154.726008,206.484004 156.015995,207.455994 157.072,208.68 C158.128005,209.904006 158.937997,211.331992 159.502,212.964 C160.066003,214.596008 160.348,216.323991 160.348,218.148 C160.348,219.996009 160.066003,221.735992 159.502,223.368 C158.937997,225.000008 158.128005,226.427994 157.072,227.652 C156.015995,228.876006 154.726008,229.841996 153.202,230.55 C151.677992,231.258004 149.95601,231.612 148.036,231.612 C146.11599,231.612 144.394008,231.258004 142.87,230.55 C141.345992,229.841996 140.056005,228.876006 139,227.652 C137.943995,226.427994 137.134003,225.000008 136.57,223.368 C136.005997,221.735992 135.724,219.996009 135.724,218.148 C135.724,216.323991 136.005997,214.596008 136.57,212.964 C137.134003,211.331992 137.943995,209.904006 139,208.68 C140.056005,207.455994 141.345992,206.484004 142.87,205.764 C144.394008,205.043996 146.11599,204.684 148.036,204.684 Z M186.88,231 L184,231 L183.316,227.976 C182.115994,229.344007 180.916006,230.291997 179.716,230.82 C178.515994,231.348003 177.136008,231.612 175.576,231.612 C173.65599,231.612 171.934008,231.258004 170.41,230.55 C168.885992,229.841996 167.596005,228.876006 166.54,227.652 C165.483995,226.427994 164.674003,225.000008 164.11,223.368 C163.545997,221.735992 163.264,219.996009 163.264,218.148 C163.264,216.323991 163.545997,214.596008 164.11,212.964 C164.674003,211.331992 165.483995,209.904006 166.54,208.68 C167.596005,207.455994 168.885992,206.484004 170.41,205.764 C171.934008,205.043996 173.65599,204.684 175.576,204.684 C176.968007,204.684 178.293994,204.869998 179.554,205.242 C180.814006,205.614002 181.935995,206.165996 182.92,206.898 C183.904005,207.630004 184.719997,208.547994 185.368,209.652 C186.016003,210.756006 186.423999,212.027993 186.592,213.468 L182.2,213.468 C182.079999,212.627996 181.822002,211.890003 181.426,211.254 C181.029998,210.617997 180.532003,210.084002 179.932,209.652 C179.331997,209.219998 178.660004,208.896001 177.916,208.68 C177.171996,208.463999 176.392004,208.356 175.576,208.356 C174.207993,208.356 173.026005,208.631997 172.03,209.184 C171.033995,209.736003 170.224003,210.473995 169.6,211.398 C168.975997,212.322005 168.514002,213.371994 168.214,214.548 C167.913999,215.724006 167.764,216.923994 167.764,218.148 C167.764,219.372006 167.913999,220.571994 168.214,221.748 C168.514002,222.924006 168.975997,223.973995 169.6,224.898 C170.224003,225.822005 171.033995,226.559997 172.03,227.112 C173.026005,227.664003 174.207993,227.94 175.576,227.94 C176.728006,227.964 177.747996,227.814002 178.636,227.49 C179.524004,227.165998 180.273997,226.698003 180.886,226.086 C181.498003,225.473997 181.959998,224.724004 182.272,223.836 C182.584002,222.947996 182.752,221.964005 182.776,220.884 L175.936,220.884 L175.936,217.464 L186.88,217.464 L186.88,231 Z M191.776,205.296 L204.052,205.296 C206.884014,205.296 209.007993,205.907994 210.424,207.132 C211.840007,208.356006 212.548,210.059989 212.548,212.244 C212.548,213.468006 212.368002,214.481996 212.008,215.286 C211.647998,216.090004 211.228002,216.737998 210.748,217.23 C210.267998,217.722002 209.794002,218.075999 209.326,218.292 C208.857998,218.508001 208.516001,218.652 208.3,218.724 L208.3,218.796 C208.684002,218.844 209.097998,218.963999 209.542,219.156 C209.986002,219.348001 210.399998,219.653998 210.784,220.074 C211.168002,220.494002 211.485999,221.039997 211.738,221.712 C211.990001,222.384003 212.116,223.223995 212.116,224.232 C212.116,225.744008 212.229999,227.117994 212.458,228.354 C212.686001,229.590006 213.039998,230.471997 213.52,231 L208.696,231 C208.359998,230.447997 208.162,229.836003 208.102,229.164 C208.042,228.491997 208.012,227.844003 208.012,227.22 C208.012,226.043994 207.940001,225.030004 207.796,224.178 C207.651999,223.325996 207.388002,222.618003 207.004,222.054 C206.619998,221.489997 206.098003,221.076001 205.438,220.812 C204.777997,220.547999 203.932005,220.416 202.9,220.416 L196.276,220.416 L196.276,231 L191.776,231 L191.776,205.296 Z M196.276,216.996 L203.656,216.996 C205.096007,216.996 206.187996,216.654003 206.932,215.97 C207.676004,215.285997 208.048,214.260007 208.048,212.892 C208.048,212.075996 207.928001,211.410003 207.688,210.894 C207.447999,210.377997 207.118002,209.976001 206.698,209.688 C206.277998,209.399999 205.798003,209.208 205.258,209.112 C204.717997,209.016 204.160003,208.968 203.584,208.968 L196.276,208.968 L196.276,216.996 Z M223.996,205.296 L228.784,205.296 L238.684,231 L233.86,231 L231.448,224.196 L221.188,224.196 L218.776,231 L214.132,231 L223.996,205.296 Z M222.412,220.776 L230.26,220.776 L226.408,209.724 L226.3,209.724 L222.412,220.776 Z M241.06,205.296 L247.396,205.296 L254.488,225.42 L254.56,225.42 L261.472,205.296 L267.736,205.296 L267.736,231 L263.452,231 L263.452,211.164 L263.38,211.164 L256.252,231 L252.544,231 L245.416,211.164 L245.344,211.164 L245.344,231 L241.06,231 L241.06,205.296 Z M273.064,205.296 L279.4,205.296 L286.492,225.42 L286.564,225.42 L293.476,205.296 L299.74,205.296 L299.74,231 L295.456,231 L295.456,211.164 L295.384,211.164 L288.256,231 L284.548,231 L277.42,211.164 L277.348,211.164 L277.348,231 L273.064,231 L273.064,205.296 Z M305.14,205.296 L323.644,205.296 L323.644,209.184 L309.64,209.184 L309.64,215.916 L322.6,215.916 L322.6,219.588 L309.64,219.588 L309.64,227.112 L323.896,227.112 L323.896,231 L305.14,231 L305.14,205.296 Z M330.772,222.432 C330.772,223.416005 330.939998,224.255997 331.276,224.952 C331.612002,225.648003 332.079997,226.217998 332.68,226.662 C333.280003,227.106002 333.969996,227.429999 334.75,227.634 C335.530004,227.838001 336.375995,227.94 337.288,227.94 C338.272005,227.94 339.111997,227.826001 339.808,227.598 C340.504003,227.369999 341.067998,227.076002 341.5,226.716 C341.932002,226.355998 342.243999,225.942002 342.436,225.474 C342.628001,225.005998 342.724,224.532002 342.724,224.052 C342.724,223.067995 342.502002,222.342002 342.058,221.874 C341.613998,221.405998 341.128003,221.076001 340.6,220.884 C339.687995,220.547998 338.626006,220.230002 337.414,219.93 C336.201994,219.629998 334.708009,219.240002 332.932,218.76 C331.827994,218.471999 330.910004,218.094002 330.178,217.626 C329.445996,217.157998 328.864002,216.636003 328.432,216.06 C327.999998,215.483997 327.694001,214.872003 327.514,214.224 C327.333999,213.575997 327.244,212.916003 327.244,212.244 C327.244,210.947994 327.513997,209.826005 328.054,208.878 C328.594003,207.929995 329.307996,207.144003 330.196,206.52 C331.084004,205.895997 332.091994,205.434001 333.22,205.134 C334.348006,204.833999 335.487994,204.684 336.64,204.684 C337.984007,204.684 339.249994,204.857998 340.438,205.206 C341.626006,205.554002 342.669996,206.075997 343.57,206.772 C344.470005,207.468003 345.183997,208.325995 345.712,209.346 C346.240003,210.366005 346.504,211.547993 346.504,212.892 L342.004,212.892 C341.883999,211.235992 341.320005,210.066003 340.312,209.382 C339.303995,208.697997 338.020008,208.356 336.46,208.356 C335.931997,208.356 335.392003,208.409999 334.84,208.518 C334.287997,208.626001 333.784002,208.805999 333.328,209.058 C332.871998,209.310001 332.494002,209.651998 332.194,210.084 C331.893999,210.516002 331.744,211.055997 331.744,211.704 C331.744,212.616005 332.025997,213.329997 332.59,213.846 C333.154003,214.362003 333.891995,214.751999 334.804,215.016 C334.9,215.04 335.277997,215.141999 335.938,215.322 C336.598003,215.502001 337.335996,215.699999 338.152,215.916 C338.968004,216.132001 339.765996,216.341999 340.546,216.546 C341.326004,216.750001 341.883998,216.9 342.22,216.996 C343.060004,217.260001 343.791997,217.619998 344.416,218.076 C345.040003,218.532002 345.561998,219.053997 345.982,219.642 C346.402002,220.230003 346.713999,220.859997 346.918,221.532 C347.122001,222.204003 347.224,222.875997 347.224,223.548 C347.224,224.988007 346.930003,226.217995 346.342,227.238 C345.753997,228.258005 344.980005,229.091997 344.02,229.74 C343.059995,230.388003 341.968006,230.861998 340.744,231.162 C339.519994,231.462001 338.272006,231.612 337,231.612 C335.535993,231.612 334.156006,231.432002 332.86,231.072 C331.563994,230.711998 330.436005,230.160004 329.476,229.416 C328.515995,228.671996 327.748003,227.718006 327.172,226.554 C326.595997,225.389994 326.296,224.016008 326.272,222.432 L330.772,222.432 Z" id="UNDERGRADUATE-PROGRA" fill="#FFFFFF"></path>
    </g>
</svg>