<?xml version="1.0" encoding="utf-8"?>
<!-- Generator: Adobe Illustrator 17.0.0, SVG Export Plug-In . SVG Version: 6.00 Build 0)  -->
<!DOCTYPE svg PUBLIC "-//W3C//DTD SVG 1.1//EN" "http://www.w3.org/Graphics/SVG/1.1/DTD/svg11.dtd">
<svg version="1.1" id="圖層_1" xmlns="http://www.w3.org/2000/svg" xmlns:xlink="http://www.w3.org/1999/xlink" x="0px" y="0px"
	 width="187.25px" height="58.33px" viewBox="0 0 187.25 58.33" enable-background="new 0 0 187.25 58.33" xml:space="preserve">
<g>
	<g>
		<path fill="#F26522" d="M7.776,7.771c0,4.287,3.489,7.776,7.773,7.776s7.769-3.489,7.769-7.776C23.318,3.484,19.833,0,15.549,0
			S7.776,3.484,7.776,7.771"/>
		<path fill="#006536" d="M3.912,19.439h15.5c2.16,0,3.912,1.752,3.912,3.913v11.637c0-2.16-1.752-3.912-3.912-3.912h-15.5
			C1.75,31.077,0,29.324,0,27.163V15.527C0,17.688,1.75,19.439,3.912,19.439"/>
		<path fill="#006536" d="M44.675,42.78h-15.5c-2.16,0-3.912,1.752-3.912,3.913V58.33c0-2.16,1.752-3.912,3.912-3.912h15.5
			c2.162,0,3.914-1.753,3.914-3.913V38.868C48.589,41.029,46.837,42.78,44.675,42.78"/>
		<path fill="#006536" d="M44.675,27.219h-15.5c-2.16,0-3.912,1.752-3.912,3.913v11.637c0-2.16,1.752-3.912,3.912-3.912h15.5
			c2.162,0,3.914-1.753,3.914-3.912V23.307C48.589,25.468,46.837,27.219,44.675,27.219"/>
		<path fill="#006536" d="M3.912,35.001h15.5c2.16,0,3.912,1.751,3.912,3.912V50.55c0-2.16-1.752-3.913-3.912-3.913h-15.5
			C1.75,46.637,0,44.885,0,42.725V31.087C0,33.248,1.75,35.001,3.912,35.001"/>
		<path fill="#006536" d="M44.675,11.672h-15.5c-2.16,0-3.912,1.753-3.912,3.913v11.637c0-2.16,1.752-3.912,3.912-3.912h15.5
			c2.162,0,3.914-1.752,3.914-3.914V7.76C48.589,9.921,46.837,11.672,44.675,11.672"/>
		<path d="M65.61,32.207l0.098,2.072H65.46c-0.048-0.365-0.113-0.626-0.195-0.782c-0.135-0.252-0.314-0.438-0.538-0.557
			s-0.518-0.179-0.883-0.179H62.6v6.75c0,0.543,0.058,0.882,0.176,1.016c0.165,0.182,0.419,0.274,0.762,0.274h0.306v0.241h-3.746
			v-0.241h0.313c0.374,0,0.638-0.113,0.795-0.339c0.095-0.139,0.143-0.456,0.143-0.951v-6.75h-1.062c-0.413,0-0.706,0.03-0.88,0.091
			c-0.226,0.083-0.419,0.241-0.579,0.475c-0.161,0.235-0.257,0.552-0.287,0.952h-0.248l0.104-2.072H65.61z"/>
		<path d="M67.943,31.777v4.365c0.482-0.53,0.864-0.87,1.147-1.019c0.282-0.151,0.564-0.225,0.847-0.225
			c0.339,0,0.629,0.093,0.873,0.28c0.243,0.187,0.424,0.48,0.541,0.879c0.082,0.278,0.123,0.787,0.123,1.525v2.111
			c0,0.378,0.031,0.636,0.092,0.775c0.043,0.105,0.117,0.187,0.221,0.248c0.104,0.061,0.295,0.091,0.574,0.091v0.235h-2.932v-0.235
			h0.136c0.278,0,0.471-0.042,0.581-0.127c0.108-0.085,0.184-0.209,0.227-0.375c0.013-0.069,0.02-0.273,0.02-0.612v-2.111
			c0-0.652-0.034-1.079-0.101-1.283c-0.067-0.204-0.175-0.358-0.323-0.46c-0.148-0.102-0.325-0.153-0.534-0.153
			c-0.213,0-0.435,0.057-0.665,0.169c-0.23,0.113-0.505,0.342-0.827,0.684v3.154c0,0.408,0.023,0.662,0.069,0.762
			c0.045,0.1,0.13,0.184,0.254,0.251c0.123,0.067,0.337,0.101,0.641,0.101v0.235H65.95v-0.235c0.264,0,0.473-0.041,0.625-0.124
			c0.087-0.043,0.156-0.126,0.208-0.247c0.052-0.122,0.079-0.369,0.079-0.743v-5.401c0-0.682-0.017-1.101-0.05-1.258
			c-0.032-0.156-0.082-0.263-0.149-0.319c-0.068-0.056-0.158-0.085-0.27-0.085c-0.092,0-0.239,0.035-0.443,0.104l-0.092-0.227
			l1.785-0.73H67.943z"/>
		<path d="M73.599,36.943h2.763c-0.022-0.382-0.068-0.651-0.138-0.808c-0.108-0.243-0.27-0.434-0.485-0.573
			c-0.215-0.139-0.439-0.208-0.675-0.208c-0.36,0-0.682,0.14-0.967,0.42C73.813,36.054,73.647,36.444,73.599,36.943 M73.599,37.321
			c-0.005,0.886,0.21,1.581,0.645,2.085c0.434,0.504,0.944,0.756,1.531,0.756c0.391,0,0.731-0.107,1.019-0.323
			c0.289-0.215,0.531-0.583,0.727-1.104l0.202,0.13c-0.091,0.595-0.357,1.137-0.795,1.626c-0.439,0.488-0.988,0.733-1.648,0.733
			c-0.717,0-1.331-0.279-1.841-0.837c-0.511-0.558-0.765-1.309-0.765-2.251c0-1.021,0.261-1.817,0.785-2.388
			c0.523-0.572,1.18-0.857,1.971-0.857c0.668,0,1.218,0.22,1.648,0.661c0.43,0.441,0.645,1.031,0.645,1.769H73.599z"/>
		<path d="M82.624,32.689v3.492h1.941c0.504,0,0.841-0.076,1.01-0.227c0.226-0.201,0.352-0.552,0.378-1.056h0.241v3.075h-0.241
			c-0.061-0.43-0.122-0.706-0.182-0.827c-0.079-0.152-0.207-0.272-0.385-0.359c-0.178-0.087-0.452-0.13-0.821-0.13h-1.941v2.912
			c0,0.391,0.017,0.629,0.052,0.714c0.035,0.085,0.095,0.152,0.182,0.202c0.087,0.05,0.252,0.075,0.496,0.075h1.498
			c0.5,0,0.862-0.035,1.088-0.105c0.226-0.069,0.443-0.206,0.652-0.41c0.269-0.269,0.544-0.675,0.827-1.218h0.261l-0.763,2.215
			h-6.808v-0.241h0.312c0.209,0,0.406-0.05,0.594-0.15c0.139-0.07,0.233-0.174,0.283-0.313c0.05-0.139,0.075-0.423,0.075-0.853
			v-5.741c0-0.56-0.057-0.905-0.169-1.035c-0.157-0.174-0.418-0.261-0.783-0.261h-0.312v-0.241h6.808l0.098,1.935h-0.254
			c-0.091-0.465-0.192-0.784-0.303-0.958c-0.111-0.173-0.275-0.306-0.492-0.397c-0.174-0.065-0.48-0.098-0.919-0.098H82.624z"/>
		<path d="M92.351,39.915V36.84c-0.026-0.296-0.104-0.565-0.234-0.808c-0.131-0.243-0.304-0.427-0.519-0.551
			c-0.214-0.124-0.424-0.185-0.628-0.185c-0.383,0-0.723,0.171-1.023,0.514c-0.396,0.452-0.593,1.112-0.593,1.981
			c0,0.877,0.191,1.55,0.574,2.016c0.382,0.467,0.807,0.701,1.276,0.701C91.599,40.508,91.982,40.31,92.351,39.915 M92.351,40.371
			c-0.291,0.304-0.576,0.522-0.854,0.655c-0.278,0.132-0.577,0.199-0.899,0.199c-0.651,0-1.22-0.273-1.706-0.818
			c-0.487-0.545-0.73-1.246-0.73-2.101c0-0.856,0.269-1.639,0.808-2.349c0.538-0.71,1.231-1.065,2.078-1.065
			c0.525,0,0.96,0.167,1.303,0.501v-1.101c0-0.682-0.016-1.101-0.049-1.257c-0.032-0.156-0.083-0.263-0.153-0.32
			c-0.069-0.056-0.156-0.084-0.26-0.084c-0.114,0-0.264,0.035-0.45,0.104l-0.085-0.228l1.779-0.729h0.293v6.899
			c0,0.7,0.016,1.126,0.049,1.28c0.033,0.155,0.085,0.262,0.156,0.323c0.072,0.06,0.155,0.091,0.251,0.091
			c0.118,0,0.274-0.037,0.469-0.111l0.072,0.228l-1.772,0.737h-0.3V40.371z"/>
		<path d="M99.773,35.074v3.616c0,0.691,0.017,1.113,0.049,1.267c0.033,0.155,0.085,0.262,0.156,0.323
			c0.072,0.06,0.156,0.091,0.251,0.091c0.135,0,0.287-0.037,0.456-0.111l0.091,0.228l-1.785,0.737h-0.293v-1.264
			c-0.513,0.556-0.903,0.905-1.173,1.049c-0.269,0.143-0.554,0.215-0.853,0.215c-0.335,0-0.625-0.097-0.87-0.291
			c-0.245-0.193-0.416-0.441-0.512-0.745c-0.095-0.305-0.143-0.734-0.143-1.29v-2.665c0-0.283-0.03-0.478-0.091-0.586
			c-0.061-0.109-0.151-0.193-0.27-0.251c-0.12-0.059-0.336-0.086-0.649-0.082v-0.241h2.092v3.994c0,0.556,0.096,0.921,0.289,1.095
			c0.194,0.173,0.427,0.26,0.701,0.26c0.187,0,0.398-0.059,0.635-0.176s0.518-0.34,0.844-0.671v-3.381
			c0-0.339-0.062-0.568-0.186-0.688c-0.124-0.119-0.381-0.183-0.772-0.192v-0.241H99.773z"/>
		<path d="M106.014,38.775c-0.161,0.786-0.475,1.391-0.945,1.814c-0.469,0.424-0.988,0.636-1.557,0.636
			c-0.677,0-1.268-0.285-1.772-0.854c-0.504-0.569-0.756-1.338-0.756-2.306c0-0.938,0.279-1.701,0.838-2.287
			c0.558-0.587,1.228-0.88,2.009-0.88c0.587,0,1.069,0.156,1.446,0.466c0.379,0.311,0.568,0.633,0.568,0.968
			c0,0.165-0.053,0.298-0.16,0.4c-0.106,0.102-0.256,0.153-0.447,0.153c-0.256,0-0.449-0.082-0.579-0.247
			c-0.074-0.092-0.123-0.265-0.147-0.521c-0.024-0.257-0.112-0.452-0.264-0.587c-0.152-0.13-0.362-0.195-0.632-0.195
			c-0.434,0-0.783,0.16-1.049,0.482c-0.351,0.426-0.527,0.988-0.527,1.687c0,0.713,0.174,1.342,0.524,1.887
			c0.35,0.545,0.822,0.817,1.418,0.817c0.425,0,0.807-0.145,1.146-0.437c0.238-0.199,0.472-0.562,0.697-1.088L106.014,38.775z"/>
		<path d="M109.983,39.758v-2.273c-0.656,0.26-1.08,0.445-1.271,0.553c-0.343,0.192-0.588,0.391-0.736,0.6
			c-0.147,0.208-0.222,0.436-0.222,0.684c0,0.313,0.094,0.572,0.281,0.778c0.186,0.207,0.402,0.31,0.645,0.31
			C109.01,40.41,109.444,40.193,109.983,39.758 M109.983,40.182c-0.613,0.474-0.997,0.747-1.154,0.821
			c-0.234,0.108-0.484,0.162-0.749,0.162c-0.412,0-0.752-0.141-1.019-0.423c-0.267-0.282-0.401-0.654-0.401-1.114
			c0-0.291,0.065-0.543,0.196-0.756c0.178-0.295,0.487-0.573,0.928-0.834c0.441-0.26,1.174-0.577,2.199-0.951v-0.235
			c0-0.595-0.095-1.003-0.284-1.224c-0.188-0.222-0.463-0.332-0.824-0.332c-0.273,0-0.49,0.073-0.651,0.221
			c-0.165,0.148-0.248,0.317-0.248,0.508l0.013,0.378c0,0.2-0.051,0.354-0.153,0.462c-0.102,0.109-0.236,0.164-0.4,0.164
			c-0.162,0-0.293-0.057-0.395-0.17c-0.102-0.113-0.153-0.267-0.153-0.462c0-0.374,0.191-0.717,0.574-1.03
			c0.382-0.313,0.918-0.469,1.609-0.469c0.53,0,0.964,0.089,1.303,0.267c0.256,0.134,0.445,0.345,0.566,0.632
			c0.079,0.187,0.118,0.569,0.118,1.147v2.026c0,0.569,0.01,0.918,0.033,1.046c0.021,0.128,0.057,0.214,0.107,0.257
			c0.05,0.044,0.107,0.065,0.173,0.065c0.069,0,0.13-0.015,0.182-0.045c0.091-0.057,0.267-0.216,0.528-0.476v0.365
			c-0.487,0.651-0.951,0.977-1.394,0.977c-0.214,0-0.383-0.074-0.509-0.221C110.052,40.79,109.987,40.538,109.983,40.182"/>
		<path d="M113.99,33.113v1.961h1.394v0.456h-1.394v3.87c0,0.387,0.056,0.647,0.166,0.782c0.111,0.135,0.253,0.202,0.427,0.202
			c0.143,0,0.282-0.045,0.417-0.134s0.239-0.22,0.313-0.394h0.254c-0.152,0.426-0.367,0.746-0.645,0.961
			c-0.278,0.215-0.565,0.322-0.86,0.322c-0.2,0-0.396-0.055-0.586-0.166c-0.192-0.11-0.333-0.269-0.424-0.475
			s-0.137-0.525-0.137-0.955V35.53h-0.945v-0.215c0.239-0.096,0.484-0.257,0.733-0.485c0.25-0.229,0.473-0.499,0.668-0.812
			c0.1-0.165,0.239-0.467,0.417-0.905H113.99z"/>
		<path d="M117.215,31.777c0.183,0,0.338,0.064,0.466,0.192c0.128,0.128,0.192,0.284,0.192,0.466s-0.064,0.339-0.192,0.469
			c-0.128,0.13-0.283,0.196-0.466,0.196c-0.182,0-0.338-0.066-0.469-0.196c-0.13-0.13-0.195-0.287-0.195-0.469
			s0.064-0.338,0.192-0.466C116.871,31.841,117.028,31.777,117.215,31.777 M117.756,34.898v4.795c0,0.374,0.027,0.622,0.082,0.746
			c0.054,0.124,0.134,0.216,0.24,0.277c0.107,0.061,0.301,0.091,0.584,0.091v0.235h-2.9v-0.235c0.291,0,0.487-0.028,0.587-0.085
			c0.1-0.056,0.179-0.149,0.237-0.28c0.059-0.13,0.089-0.38,0.089-0.749v-2.3c0-0.647-0.02-1.066-0.059-1.257
			c-0.031-0.139-0.078-0.236-0.144-0.29c-0.065-0.055-0.154-0.082-0.266-0.082c-0.122,0-0.27,0.033-0.444,0.098l-0.091-0.234
			l1.798-0.73H117.756z"/>
		<path d="M121.854,35.321c-0.23,0-0.461,0.068-0.694,0.206c-0.232,0.136-0.42,0.376-0.563,0.719
			c-0.143,0.344-0.215,0.785-0.215,1.323c0,0.869,0.173,1.618,0.518,2.248s0.8,0.944,1.365,0.944c0.421,0,0.768-0.173,1.042-0.521
			c0.274-0.347,0.411-0.944,0.411-1.791c0-1.06-0.228-1.894-0.685-2.502C122.725,35.53,122.332,35.321,121.854,35.321
			 M122.056,34.898c0.904,0,1.629,0.343,2.177,1.029c0.464,0.586,0.697,1.26,0.697,2.02c0,0.534-0.129,1.075-0.385,1.622
			c-0.256,0.547-0.609,0.96-1.059,1.238c-0.449,0.278-0.95,0.417-1.502,0.417c-0.898,0-1.613-0.358-2.143-1.075
			c-0.447-0.604-0.671-1.281-0.671-2.032c0-0.548,0.135-1.092,0.407-1.633c0.271-0.541,0.629-0.94,1.072-1.199
			C121.092,35.027,121.561,34.898,122.056,34.898"/>
		<path d="M127.282,36.162c0.699-0.842,1.366-1.264,2-1.264c0.326,0,0.606,0.081,0.841,0.245c0.234,0.162,0.421,0.43,0.56,0.804
			c0.096,0.261,0.143,0.66,0.143,1.199v2.547c0,0.378,0.031,0.634,0.091,0.769c0.048,0.109,0.125,0.194,0.232,0.254
			c0.106,0.061,0.303,0.091,0.59,0.091v0.235h-2.952v-0.235h0.124c0.278,0,0.472-0.042,0.583-0.127
			c0.111-0.084,0.188-0.209,0.231-0.374c0.018-0.065,0.026-0.269,0.026-0.613V37.25c0-0.543-0.07-0.937-0.211-1.183
			c-0.142-0.245-0.379-0.367-0.714-0.367c-0.517,0-1.032,0.282-1.544,0.846v3.147c0,0.404,0.024,0.654,0.072,0.75
			c0.061,0.126,0.144,0.218,0.251,0.277c0.106,0.058,0.322,0.087,0.648,0.087v0.235h-2.952v-0.235h0.131
			c0.304,0,0.509-0.077,0.615-0.231c0.107-0.154,0.16-0.448,0.16-0.883v-2.215c0-0.716-0.016-1.153-0.049-1.309
			c-0.033-0.157-0.083-0.263-0.15-0.32c-0.067-0.056-0.157-0.084-0.27-0.084c-0.122,0-0.267,0.032-0.437,0.097l-0.097-0.234
			l1.798-0.73h0.28V36.162z"/>
		<path d="M139.63,32.448v-0.241h3.127v0.241h-0.332c-0.348,0-0.614,0.146-0.801,0.436c-0.092,0.135-0.137,0.448-0.137,0.939v3.583
			c0,0.886-0.088,1.574-0.264,2.062c-0.176,0.488-0.521,0.908-1.036,1.258c-0.514,0.349-1.215,0.524-2.101,0.524
			c-0.964,0-1.696-0.167-2.196-0.502c-0.499-0.334-0.853-0.784-1.062-1.349c-0.139-0.386-0.208-1.111-0.208-2.176V33.77
			c0-0.542-0.075-0.899-0.225-1.068s-0.392-0.254-0.727-0.254h-0.332v-0.241h3.818v0.241h-0.339c-0.364,0-0.625,0.115-0.781,0.345
			c-0.109,0.156-0.163,0.482-0.163,0.977v3.851c0,0.343,0.031,0.736,0.094,1.179c0.063,0.443,0.177,0.789,0.342,1.036
			c0.165,0.248,0.403,0.452,0.714,0.612c0.31,0.162,0.691,0.242,1.143,0.242c0.578,0,1.095-0.126,1.551-0.378
			c0.456-0.252,0.767-0.575,0.934-0.968c0.168-0.393,0.252-1.059,0.252-1.996V33.77c0-0.551-0.061-0.897-0.183-1.036
			c-0.169-0.19-0.421-0.286-0.756-0.286H139.63z"/>
		<path d="M144.523,36.162c0.699-0.842,1.366-1.264,2-1.264c0.326,0,0.606,0.081,0.841,0.245c0.234,0.162,0.421,0.43,0.56,0.804
			c0.096,0.261,0.143,0.66,0.143,1.199v2.547c0,0.378,0.031,0.634,0.091,0.769c0.048,0.109,0.125,0.194,0.232,0.254
			c0.106,0.061,0.303,0.091,0.59,0.091v0.235h-2.952v-0.235h0.124c0.278,0,0.472-0.042,0.583-0.127
			c0.111-0.084,0.188-0.209,0.231-0.374c0.018-0.065,0.026-0.269,0.026-0.613V37.25c0-0.543-0.07-0.937-0.211-1.183
			c-0.142-0.245-0.379-0.367-0.714-0.367c-0.517,0-1.032,0.282-1.544,0.846v3.147c0,0.404,0.024,0.654,0.072,0.75
			c0.061,0.126,0.144,0.218,0.251,0.277c0.106,0.058,0.322,0.087,0.648,0.087v0.235h-2.952v-0.235h0.131
			c0.304,0,0.509-0.077,0.615-0.231c0.107-0.154,0.16-0.448,0.16-0.883v-2.215c0-0.716-0.016-1.153-0.049-1.309
			c-0.033-0.157-0.083-0.263-0.15-0.32c-0.067-0.056-0.157-0.084-0.27-0.084c-0.122,0-0.267,0.032-0.437,0.097l-0.097-0.234
			l1.798-0.73h0.28V36.162z"/>
		<path d="M150.707,31.777c0.183,0,0.338,0.064,0.466,0.192c0.128,0.128,0.192,0.284,0.192,0.466s-0.064,0.339-0.192,0.469
			c-0.128,0.13-0.283,0.196-0.466,0.196c-0.182,0-0.338-0.066-0.469-0.196c-0.13-0.13-0.195-0.287-0.195-0.469
			s0.064-0.338,0.192-0.466S150.52,31.777,150.707,31.777 M151.247,34.898v4.795c0,0.374,0.027,0.622,0.082,0.746
			c0.054,0.124,0.134,0.216,0.24,0.277c0.107,0.061,0.301,0.091,0.584,0.091v0.235h-2.9v-0.235c0.291,0,0.487-0.028,0.587-0.085
			c0.1-0.056,0.179-0.149,0.237-0.28c0.059-0.13,0.088-0.38,0.088-0.749v-2.3c0-0.647-0.019-1.066-0.058-1.257
			c-0.031-0.139-0.078-0.236-0.144-0.29c-0.065-0.055-0.154-0.082-0.266-0.082c-0.122,0-0.27,0.033-0.444,0.098l-0.091-0.234
			l1.798-0.73H151.247z"/>
		<path d="M152.189,35.074h2.808v0.241h-0.182c-0.17,0-0.299,0.041-0.388,0.124c-0.089,0.082-0.134,0.193-0.134,0.332
			c0,0.152,0.046,0.332,0.138,0.541l1.387,3.297l1.395-3.421c0.099-0.243,0.149-0.427,0.149-0.553c0-0.062-0.017-0.112-0.052-0.151
			c-0.048-0.065-0.108-0.109-0.182-0.133c-0.074-0.024-0.224-0.036-0.45-0.036v-0.241h1.948v0.241
			c-0.226,0.018-0.382,0.063-0.469,0.137c-0.152,0.131-0.289,0.348-0.41,0.651l-2.118,5.122h-0.267l-2.131-5.037
			c-0.095-0.234-0.186-0.403-0.273-0.505c-0.087-0.101-0.198-0.188-0.332-0.257c-0.074-0.039-0.22-0.076-0.437-0.111V35.074z"/>
		<path d="M159.637,36.943h2.763c-0.022-0.382-0.068-0.651-0.138-0.808c-0.108-0.243-0.27-0.434-0.485-0.573
			s-0.439-0.208-0.674-0.208c-0.36,0-0.683,0.14-0.968,0.42C159.851,36.054,159.685,36.444,159.637,36.943 M159.637,37.321
			c-0.004,0.886,0.211,1.581,0.645,2.085c0.434,0.504,0.945,0.756,1.531,0.756c0.391,0,0.731-0.107,1.02-0.323
			c0.289-0.215,0.531-0.583,0.726-1.104l0.202,0.13c-0.091,0.595-0.356,1.137-0.795,1.626c-0.438,0.488-0.988,0.733-1.648,0.733
			c-0.717,0-1.33-0.279-1.841-0.837c-0.51-0.558-0.765-1.309-0.765-2.251c0-1.021,0.261-1.817,0.785-2.388
			c0.523-0.572,1.18-0.857,1.971-0.857c0.669,0,1.218,0.22,1.648,0.661c0.43,0.441,0.645,1.031,0.645,1.769H159.637z"/>
		<path d="M166.302,34.898v1.342c0.499-0.895,1.012-1.342,1.537-1.342c0.24,0,0.437,0.073,0.594,0.218
			c0.156,0.146,0.234,0.314,0.234,0.505c0,0.169-0.056,0.313-0.169,0.43s-0.248,0.176-0.404,0.176c-0.152,0-0.323-0.075-0.512-0.225
			c-0.188-0.15-0.329-0.225-0.42-0.225c-0.078,0-0.163,0.044-0.254,0.13c-0.196,0.179-0.397,0.472-0.606,0.88v2.86
			c0,0.331,0.042,0.58,0.124,0.75c0.056,0.117,0.156,0.215,0.299,0.293c0.144,0.078,0.35,0.117,0.62,0.117v0.235h-3.056v-0.235
			c0.304,0,0.53-0.048,0.677-0.143c0.109-0.07,0.185-0.18,0.229-0.332c0.021-0.074,0.032-0.285,0.032-0.633v-2.312
			c0-0.695-0.014-1.109-0.042-1.241c-0.029-0.133-0.081-0.23-0.157-0.291c-0.076-0.06-0.17-0.091-0.283-0.091
			c-0.134,0-0.287,0.033-0.456,0.098l-0.065-0.234l1.804-0.73H166.302z"/>
		<path d="M172.589,34.898v2.032h-0.215c-0.165-0.638-0.377-1.072-0.635-1.302c-0.259-0.231-0.588-0.346-0.987-0.346
			c-0.304,0-0.55,0.08-0.736,0.241c-0.187,0.161-0.281,0.339-0.281,0.535c0,0.243,0.07,0.452,0.209,0.625
			c0.135,0.178,0.408,0.367,0.821,0.567l0.951,0.463c0.882,0.43,1.322,0.996,1.322,1.7c0,0.543-0.205,0.981-0.615,1.313
			c-0.411,0.332-0.87,0.498-1.378,0.498c-0.365,0-0.782-0.065-1.251-0.195c-0.143-0.044-0.261-0.065-0.352-0.065
			c-0.1,0-0.178,0.056-0.234,0.169h-0.215v-2.131h0.215c0.121,0.608,0.354,1.067,0.697,1.375c0.343,0.308,0.727,0.463,1.153,0.463
			c0.3,0,0.544-0.088,0.733-0.264c0.189-0.176,0.284-0.388,0.284-0.635c0-0.3-0.106-0.552-0.317-0.756
			c-0.21-0.204-0.631-0.463-1.26-0.775c-0.63-0.313-1.043-0.595-1.238-0.848c-0.196-0.247-0.293-0.56-0.293-0.938
			c0-0.49,0.168-0.901,0.505-1.231c0.336-0.33,0.771-0.495,1.306-0.495c0.235,0,0.519,0.05,0.853,0.15
			c0.222,0.065,0.369,0.097,0.444,0.097c0.069,0,0.123-0.015,0.162-0.045c0.039-0.03,0.085-0.098,0.137-0.202H172.589z"/>
		<path d="M175.176,31.777c0.183,0,0.338,0.064,0.466,0.192s0.192,0.284,0.192,0.466s-0.064,0.339-0.192,0.469
			s-0.283,0.196-0.466,0.196c-0.182,0-0.338-0.066-0.469-0.196c-0.13-0.13-0.195-0.287-0.195-0.469s0.064-0.338,0.192-0.466
			C174.832,31.841,174.989,31.777,175.176,31.777 M175.717,34.898v4.795c0,0.374,0.027,0.622,0.082,0.746
			c0.054,0.124,0.134,0.216,0.24,0.277c0.107,0.061,0.301,0.091,0.584,0.091v0.235h-2.9v-0.235c0.291,0,0.487-0.028,0.587-0.085
			c0.1-0.056,0.179-0.149,0.237-0.28c0.059-0.13,0.089-0.38,0.089-0.749v-2.3c0-0.647-0.02-1.066-0.059-1.257
			c-0.031-0.139-0.078-0.236-0.144-0.29c-0.065-0.055-0.154-0.082-0.266-0.082c-0.122,0-0.27,0.033-0.444,0.098l-0.091-0.234
			l1.798-0.73H175.717z"/>
		<path d="M178.832,33.113v1.961h1.394v0.456h-1.394v3.87c0,0.387,0.056,0.647,0.166,0.782c0.111,0.135,0.253,0.202,0.427,0.202
			c0.143,0,0.282-0.045,0.417-0.134c0.135-0.089,0.239-0.22,0.313-0.394h0.254c-0.152,0.426-0.367,0.746-0.645,0.961
			c-0.278,0.215-0.565,0.322-0.86,0.322c-0.2,0-0.396-0.055-0.586-0.166c-0.192-0.11-0.333-0.269-0.424-0.475
			s-0.137-0.525-0.137-0.955V35.53h-0.945v-0.215c0.239-0.096,0.484-0.257,0.733-0.485c0.25-0.229,0.473-0.499,0.668-0.812
			c0.1-0.165,0.239-0.467,0.417-0.905H178.832z"/>
		<path d="M180.733,35.074h2.782v0.241h-0.137c-0.195,0-0.342,0.042-0.439,0.127c-0.098,0.085-0.147,0.19-0.147,0.316
			c0,0.17,0.071,0.404,0.215,0.704l1.453,3.01l1.336-3.297c0.073-0.178,0.11-0.354,0.11-0.527c0-0.079-0.015-0.138-0.045-0.177
			c-0.035-0.047-0.089-0.085-0.163-0.114c-0.074-0.028-0.205-0.042-0.391-0.042v-0.241h1.942v0.241
			c-0.162,0.018-0.285,0.052-0.372,0.104c-0.087,0.052-0.182,0.15-0.287,0.294c-0.039,0.061-0.113,0.228-0.221,0.501l-2.431,5.955
			c-0.234,0.578-0.541,1.015-0.921,1.31s-0.746,0.443-1.098,0.443c-0.257,0-0.467-0.074-0.632-0.221
			c-0.165-0.149-0.248-0.318-0.248-0.509c0-0.182,0.06-0.329,0.179-0.44c0.12-0.11,0.284-0.166,0.492-0.166
			c0.144,0,0.339,0.048,0.587,0.144c0.174,0.065,0.282,0.097,0.326,0.097c0.13,0,0.272-0.067,0.426-0.202
			c0.154-0.135,0.31-0.395,0.466-0.782l0.423-1.036l-2.143-4.501c-0.065-0.135-0.169-0.303-0.313-0.502
			c-0.108-0.152-0.197-0.255-0.267-0.307c-0.1-0.069-0.26-0.13-0.482-0.182V35.074z"/>
		<path d="M61.023,48.665c-0.23,0-0.462,0.068-0.694,0.206c-0.232,0.136-0.42,0.376-0.563,0.719
			c-0.143,0.344-0.215,0.784-0.215,1.323c0,0.869,0.173,1.618,0.518,2.248s0.8,0.944,1.365,0.944c0.421,0,0.768-0.173,1.042-0.521
			c0.274-0.347,0.411-0.944,0.411-1.791c0-1.06-0.229-1.894-0.685-2.502C61.894,48.874,61.501,48.665,61.023,48.665 M61.225,48.242
			c0.904,0,1.629,0.343,2.176,1.029c0.465,0.586,0.698,1.26,0.698,2.02c0,0.534-0.128,1.075-0.385,1.622
			c-0.256,0.547-0.609,0.96-1.059,1.238c-0.449,0.278-0.95,0.417-1.502,0.417c-0.899,0-1.613-0.358-2.143-1.075
			c-0.447-0.604-0.671-1.281-0.671-2.032c0-0.548,0.135-1.092,0.407-1.633c0.271-0.541,0.629-0.94,1.072-1.199
			C60.261,48.371,60.73,48.242,61.225,48.242"/>
		<path d="M66.778,48.886v3.923c0,0.556,0.06,0.908,0.182,1.055c0.161,0.191,0.376,0.286,0.645,0.286h0.541v0.235h-3.564V54.15
			h0.267c0.174,0,0.333-0.043,0.476-0.13c0.143-0.087,0.242-0.204,0.296-0.352c0.054-0.147,0.082-0.434,0.082-0.859v-3.923h-1.16
			v-0.469h1.16v-0.391c0-0.595,0.095-1.099,0.286-1.511c0.191-0.413,0.484-0.746,0.877-1.001c0.392-0.253,0.835-0.38,1.325-0.38
			c0.457,0,0.876,0.147,1.258,0.442c0.252,0.196,0.378,0.415,0.378,0.659c0,0.13-0.057,0.253-0.169,0.367
			c-0.113,0.116-0.235,0.173-0.366,0.173c-0.1,0-0.205-0.036-0.315-0.107c-0.111-0.072-0.247-0.226-0.407-0.463
			c-0.161-0.237-0.309-0.396-0.444-0.479c-0.134-0.082-0.284-0.124-0.449-0.124c-0.2,0-0.37,0.054-0.509,0.16
			c-0.139,0.107-0.238,0.272-0.299,0.495c-0.061,0.224-0.091,0.801-0.091,1.73v0.43h1.537v0.469H66.778z"/>
		<path d="M73.483,49.649h4.104v-2.528c0-0.452-0.028-0.75-0.084-0.893c-0.044-0.108-0.135-0.202-0.274-0.28
			c-0.187-0.104-0.384-0.156-0.593-0.156h-0.312v-0.241h3.778v0.241h-0.313c-0.208,0-0.406,0.05-0.593,0.15
			c-0.139,0.069-0.233,0.175-0.283,0.315c-0.05,0.142-0.075,0.43-0.075,0.864v5.701c0,0.447,0.029,0.743,0.085,0.886
			c0.043,0.108,0.132,0.202,0.267,0.28c0.191,0.104,0.391,0.156,0.599,0.156h0.313v0.241h-3.778v-0.241h0.312
			c0.36,0,0.623-0.106,0.789-0.319c0.108-0.139,0.162-0.473,0.162-1.003v-2.691h-4.104v2.691c0,0.447,0.028,0.743,0.084,0.886
			c0.044,0.108,0.135,0.202,0.274,0.28c0.187,0.104,0.385,0.156,0.593,0.156h0.319v0.241h-3.785v-0.241h0.312
			c0.365,0,0.631-0.106,0.796-0.319c0.104-0.139,0.156-0.473,0.156-1.003v-5.701c0-0.452-0.029-0.75-0.085-0.893
			c-0.043-0.108-0.132-0.202-0.267-0.28c-0.192-0.104-0.391-0.156-0.6-0.156h-0.312v-0.241h3.785v0.241h-0.319
			c-0.208,0-0.406,0.05-0.593,0.15c-0.135,0.069-0.228,0.175-0.28,0.315c-0.052,0.142-0.078,0.43-0.078,0.864V49.649z"/>
		<path d="M83.243,48.665c-0.23,0-0.462,0.068-0.694,0.206c-0.233,0.136-0.42,0.376-0.563,0.719
			c-0.144,0.344-0.216,0.784-0.216,1.323c0,0.869,0.173,1.618,0.518,2.248c0.346,0.63,0.801,0.944,1.366,0.944
			c0.421,0,0.768-0.173,1.042-0.521c0.274-0.347,0.41-0.944,0.41-1.791c0-1.06-0.228-1.894-0.684-2.502
			C84.114,48.874,83.72,48.665,83.243,48.665 M83.445,48.242c0.903,0,1.629,0.343,2.176,1.029c0.465,0.586,0.697,1.26,0.697,2.02
			c0,0.534-0.128,1.075-0.384,1.622c-0.256,0.547-0.609,0.96-1.059,1.238c-0.45,0.278-0.95,0.417-1.502,0.417
			c-0.899,0-1.613-0.358-2.144-1.075c-0.447-0.604-0.67-1.281-0.67-2.032c0-0.548,0.135-1.092,0.407-1.633
			c0.271-0.541,0.629-0.94,1.072-1.199C82.48,48.371,82.95,48.242,83.445,48.242"/>
		<path d="M88.67,49.505c0.7-0.842,1.366-1.264,2-1.264c0.326,0,0.606,0.081,0.841,0.245c0.234,0.162,0.421,0.43,0.56,0.804
			c0.095,0.261,0.143,0.66,0.143,1.199v2.547c0,0.378,0.031,0.634,0.091,0.769c0.048,0.109,0.125,0.194,0.232,0.254
			c0.106,0.061,0.303,0.091,0.589,0.091v0.235h-2.951V54.15h0.123c0.279,0,0.473-0.042,0.584-0.127
			c0.111-0.084,0.188-0.209,0.231-0.374c0.017-0.065,0.026-0.269,0.026-0.613v-2.443c0-0.543-0.07-0.937-0.211-1.183
			c-0.142-0.245-0.379-0.367-0.714-0.367c-0.517,0-1.032,0.282-1.544,0.846v3.147c0,0.404,0.024,0.654,0.072,0.749
			c0.06,0.127,0.144,0.219,0.25,0.278c0.107,0.058,0.323,0.087,0.649,0.087v0.235h-2.952V54.15h0.131
			c0.304,0,0.509-0.077,0.615-0.231c0.107-0.154,0.16-0.448,0.16-0.883v-2.215c0-0.716-0.016-1.153-0.049-1.309
			c-0.032-0.157-0.082-0.263-0.15-0.32c-0.067-0.056-0.157-0.084-0.27-0.084c-0.122,0-0.267,0.032-0.437,0.097l-0.097-0.234
			l1.798-0.73h0.28V49.505z"/>
		<path d="M96.066,48.554c-0.322,0-0.591,0.128-0.809,0.384c-0.217,0.257-0.325,0.65-0.325,1.18c0,0.686,0.147,1.218,0.443,1.596
			c0.226,0.286,0.512,0.43,0.86,0.43c0.33,0,0.602-0.124,0.814-0.371c0.213-0.248,0.319-0.637,0.319-1.167
			c0-0.691-0.149-1.231-0.449-1.622C96.698,48.697,96.413,48.554,96.066,48.554 M94.867,54.385
			c-0.204,0.222-0.358,0.428-0.463,0.619c-0.104,0.191-0.156,0.367-0.156,0.528c0,0.208,0.125,0.39,0.378,0.547
			c0.434,0.269,1.062,0.404,1.882,0.404c0.782,0,1.359-0.138,1.73-0.414c0.371-0.276,0.558-0.57,0.558-0.883
			c0-0.225-0.111-0.386-0.333-0.482c-0.226-0.095-0.673-0.152-1.342-0.169C96.144,54.509,95.392,54.459,94.867,54.385
			 M94.932,52.209c-0.365-0.178-0.645-0.427-0.841-0.746c-0.195-0.319-0.293-0.672-0.293-1.059c0-0.59,0.223-1.099,0.668-1.525
			c0.445-0.425,1.016-0.638,1.71-0.638c0.569,0,1.062,0.139,1.48,0.417h1.263c0.187,0,0.296,0.006,0.326,0.016
			c0.03,0.011,0.052,0.03,0.065,0.056c0.026,0.039,0.039,0.108,0.039,0.208c0,0.113-0.011,0.192-0.032,0.235
			c-0.013,0.022-0.036,0.039-0.069,0.052c-0.032,0.013-0.142,0.019-0.329,0.019h-0.775c0.243,0.313,0.365,0.713,0.365,1.199
			c0,0.556-0.213,1.032-0.639,1.427c-0.426,0.396-0.997,0.593-1.713,0.593c-0.296,0-0.597-0.043-0.906-0.13
			c-0.191,0.165-0.32,0.309-0.388,0.433c-0.067,0.124-0.101,0.229-0.101,0.316c0,0.074,0.036,0.145,0.108,0.215
			c0.072,0.07,0.212,0.12,0.42,0.15c0.121,0.017,0.426,0.032,0.912,0.045c0.895,0.022,1.475,0.053,1.74,0.092
			c0.404,0.056,0.726,0.206,0.968,0.449c0.24,0.243,0.361,0.543,0.361,0.9c0,0.49-0.23,0.95-0.691,1.38
			c-0.677,0.635-1.561,0.952-2.651,0.952c-0.839,0-1.547-0.189-2.124-0.567c-0.326-0.217-0.489-0.443-0.489-0.677
			c0-0.105,0.024-0.209,0.072-0.313c0.074-0.161,0.226-0.385,0.456-0.671c0.03-0.039,0.252-0.274,0.665-0.704
			c-0.227-0.135-0.386-0.255-0.48-0.362c-0.093-0.106-0.14-0.227-0.14-0.361c0-0.152,0.062-0.331,0.186-0.535
			C94.199,52.871,94.485,52.582,94.932,52.209"/>
		<path d="M105.312,49.486l3.258,3.238c0.534,0.534,0.99,0.898,1.368,1.092c0.378,0.193,0.756,0.302,1.134,0.328v0.242h-4.203
			v-0.242c0.252,0,0.433-0.042,0.544-0.127c0.111-0.084,0.167-0.179,0.167-0.283s-0.021-0.198-0.062-0.28
			c-0.042-0.082-0.178-0.237-0.408-0.463l-3.049-3.016v2.847c0,0.448,0.028,0.743,0.085,0.886c0.043,0.109,0.135,0.202,0.274,0.28
			c0.186,0.104,0.384,0.156,0.592,0.156h0.3v0.242h-3.766v-0.242h0.313c0.365,0,0.63-0.106,0.795-0.319
			c0.104-0.139,0.156-0.473,0.156-1.003v-5.708c0-0.447-0.028-0.744-0.084-0.892c-0.044-0.104-0.133-0.196-0.268-0.274
			c-0.191-0.104-0.391-0.156-0.599-0.156h-0.313v-0.241h3.766v0.241h-0.3c-0.203,0-0.401,0.05-0.592,0.15
			c-0.135,0.069-0.229,0.173-0.281,0.312c-0.052,0.14-0.078,0.426-0.078,0.86v2.704c0.087-0.082,0.385-0.358,0.893-0.827
			c1.29-1.182,2.07-1.97,2.339-2.365c0.117-0.174,0.175-0.326,0.175-0.456c0-0.1-0.045-0.188-0.136-0.264s-0.245-0.114-0.463-0.114
			h-0.202v-0.241h3.245v0.241c-0.191,0.004-0.365,0.03-0.521,0.078c-0.157,0.048-0.348,0.14-0.574,0.277
			c-0.225,0.137-0.504,0.357-0.834,0.662c-0.095,0.086-0.536,0.531-1.322,1.335L105.312,49.486z"/>
		<path d="M113.293,48.665c-0.23,0-0.461,0.068-0.694,0.206c-0.232,0.136-0.42,0.376-0.563,0.719
			c-0.143,0.344-0.215,0.784-0.215,1.323c0,0.869,0.173,1.618,0.518,2.248s0.8,0.944,1.365,0.944c0.421,0,0.768-0.173,1.042-0.521
			c0.274-0.347,0.411-0.944,0.411-1.791c0-1.06-0.228-1.894-0.685-2.502C114.164,48.874,113.771,48.665,113.293,48.665
			 M113.495,48.242c0.904,0,1.629,0.343,2.177,1.029c0.464,0.586,0.697,1.26,0.697,2.02c0,0.534-0.129,1.075-0.385,1.622
			c-0.256,0.547-0.609,0.96-1.059,1.238c-0.449,0.278-0.95,0.417-1.502,0.417c-0.898,0-1.613-0.358-2.143-1.075
			c-0.447-0.604-0.671-1.281-0.671-2.032c0-0.548,0.135-1.092,0.407-1.633c0.271-0.541,0.629-0.94,1.072-1.199
			C112.531,48.371,113,48.242,113.495,48.242"/>
		<path d="M118.721,49.505c0.699-0.842,1.366-1.264,2-1.264c0.326,0,0.606,0.081,0.841,0.245c0.234,0.162,0.421,0.43,0.56,0.804
			c0.096,0.261,0.143,0.66,0.143,1.199v2.547c0,0.378,0.031,0.634,0.091,0.769c0.048,0.109,0.125,0.194,0.232,0.254
			c0.106,0.061,0.303,0.091,0.59,0.091v0.235h-2.952V54.15h0.124c0.278,0,0.472-0.042,0.583-0.127
			c0.111-0.084,0.188-0.209,0.231-0.374c0.018-0.065,0.026-0.269,0.026-0.613v-2.443c0-0.543-0.07-0.937-0.211-1.183
			c-0.142-0.245-0.379-0.367-0.714-0.367c-0.517,0-1.032,0.282-1.544,0.846v3.147c0,0.404,0.024,0.654,0.072,0.749
			c0.061,0.127,0.144,0.219,0.251,0.278c0.106,0.058,0.322,0.087,0.648,0.087v0.235h-2.952V54.15h0.131
			c0.304,0,0.509-0.077,0.615-0.231c0.107-0.154,0.16-0.448,0.16-0.883v-2.215c0-0.716-0.016-1.153-0.049-1.309
			c-0.033-0.157-0.083-0.263-0.15-0.32c-0.067-0.056-0.157-0.084-0.27-0.084c-0.122,0-0.267,0.032-0.437,0.097l-0.097-0.234
			l1.798-0.73h0.28V49.505z"/>
		<path d="M126.117,48.554c-0.322,0-0.591,0.128-0.808,0.384c-0.217,0.257-0.326,0.65-0.326,1.18c0,0.686,0.148,1.218,0.443,1.596
			c0.226,0.286,0.512,0.43,0.86,0.43c0.33,0,0.601-0.124,0.814-0.371c0.213-0.248,0.32-0.637,0.32-1.167
			c0-0.691-0.15-1.231-0.45-1.622C126.749,48.697,126.464,48.554,126.117,48.554 M124.918,54.385
			c-0.205,0.222-0.358,0.428-0.463,0.619c-0.104,0.191-0.156,0.367-0.156,0.528c0,0.208,0.125,0.39,0.378,0.547
			c0.434,0.269,1.062,0.404,1.882,0.404c0.782,0,1.359-0.138,1.731-0.414c0.371-0.276,0.557-0.57,0.557-0.883
			c0-0.225-0.112-0.386-0.333-0.482c-0.226-0.095-0.673-0.152-1.342-0.169C126.195,54.509,125.443,54.459,124.918,54.385
			 M124.983,52.209c-0.365-0.178-0.645-0.427-0.841-0.746c-0.195-0.319-0.293-0.672-0.293-1.059c0-0.59,0.223-1.099,0.668-1.525
			c0.445-0.425,1.015-0.638,1.71-0.638c0.569,0,1.062,0.139,1.479,0.417h1.264c0.187,0,0.295,0.006,0.326,0.016
			c0.03,0.011,0.052,0.03,0.065,0.056c0.026,0.039,0.039,0.108,0.039,0.208c0,0.113-0.011,0.192-0.032,0.235
			c-0.013,0.022-0.036,0.039-0.069,0.052c-0.033,0.013-0.142,0.019-0.329,0.019h-0.775c0.243,0.313,0.365,0.713,0.365,1.199
			c0,0.556-0.213,1.032-0.639,1.427c-0.426,0.396-0.997,0.593-1.713,0.593c-0.296,0-0.597-0.043-0.906-0.13
			c-0.191,0.165-0.321,0.309-0.388,0.433c-0.067,0.124-0.101,0.229-0.101,0.316c0,0.074,0.036,0.145,0.108,0.215
			c0.071,0.07,0.212,0.12,0.42,0.15c0.122,0.017,0.426,0.032,0.912,0.045c0.895,0.022,1.475,0.053,1.74,0.092
			c0.404,0.056,0.726,0.206,0.967,0.449c0.241,0.243,0.362,0.543,0.362,0.9c0,0.49-0.23,0.95-0.691,1.38
			c-0.677,0.635-1.561,0.952-2.651,0.952c-0.839,0-1.547-0.189-2.124-0.567c-0.326-0.217-0.489-0.443-0.489-0.677
			c0-0.105,0.024-0.209,0.072-0.313c0.074-0.161,0.225-0.385,0.456-0.671c0.03-0.039,0.252-0.274,0.665-0.704
			c-0.227-0.135-0.386-0.255-0.479-0.362c-0.094-0.106-0.14-0.227-0.14-0.361c0-0.152,0.061-0.331,0.185-0.535
			C124.25,52.871,124.536,52.582,124.983,52.209"/>
		<path d="M67.26,20.131h-4.258v1.823h4.258V20.131z M67.26,18.123h-4.258v1.552h4.258V18.123z M68.442,23.05
			c0.014,0.086-0.015,0.185-0.185,0.256c-0.299,0.143-0.471,0.214-0.812,0.3c-0.1,0.014-0.185-0.058-0.185-0.115v-1.096h-4.258
			v0.755c0,0.085-0.071,0.185-0.341,0.284l-0.656,0.243c-0.114,0.028-0.228-0.071-0.228-0.186l0.057-1.623v-4.315l-0.142,0.114
			c-1.011,0.812-2.093,1.552-3.275,2.008l-0.128-0.185c1.737-1.395,3.432-2.948,4.4-4.898h-2.863c-0.313,0-0.641,0.042-1.025,0.128
			l-0.327-0.57h6.023v-1.424l-0.64,0.071l-2.023,0.129l-2.52,0.071l-0.043-0.257l2.35-0.37c2.335-0.37,4.585-0.968,6.749-1.751
			c0.299,0.427,0.67,0.94,0.969,1.424c0.028,0.085,0.028,0.213-0.086,0.242c-0.285,0-0.498-0.171-0.769-0.185l-2.192,0.384
			l-0.656,0.086v1.58h3.432l0.612-0.811c0.057-0.058,0.2-0.072,0.285-0.015c0.456,0.328,0.84,0.641,1.268,0.997
			c0.043,0.057,0.085,0.185,0,0.242l-0.1,0.029h-4.557l0.142,0.185c1.026,1.339,2.55,1.951,4.03,2.463l1.054,0.256l-0.028,0.229
			c-0.626,0.057-1.282,0.256-1.623,0.811c-1.652-0.783-3.447-2.164-4.13-3.944h-0.385v1.238l0.029,1.197
			c0,0.085-0.029,0.185-0.128,0.242c-0.285,0.142-0.598,0.242-0.926,0.284c-0.114,0.015-0.157-0.071-0.171-0.113l0.057-1.581v-1.267
			h-0.313c-0.541,0.926-1.239,1.865-2.022,2.663l1.068,0.427h3.788l0.427-0.47c0.043-0.071,0.213-0.071,0.284,0l0.94,0.712
			c0.057,0.071,0.1,0.156,0.029,0.256c-0.114,0.128-0.242,0.214-0.285,0.37L68.442,23.05z"/>
		<path d="M81.469,13.666h-1.652v1.908h1.652V13.666z M81.767,17.98H79.29v1.495h2.477V17.98z M81.668,16.015h-1.851
			c-0.228,0.413-0.499,0.826-0.755,1.225l0.356,0.299h2.15l0.342-0.356c0.114-0.086,0.214-0.043,0.313,0.085
			C82.024,16.855,81.796,16.471,81.668,16.015 M76.385,16.015l-0.712,2.222c-0.128,0.584-0.299,1.125-0.271,1.78
			c1.325-1.14,2.421-2.478,3.104-4.002H76.385z M76.114,13.623c-0.071,0.057-0.185,0.043-0.256,0.014
			c-0.256-0.256-0.427-0.669-0.613-0.954c-0.427-0.641-0.825-1.111-1.366-1.666l0.114-0.228c0.811,0.285,1.609,0.584,2.292,1.154
			c0.214,0.213,0.399,0.427,0.342,0.754C76.556,13.096,76.399,13.438,76.114,13.623 M85.968,18.806c-0.171,0-0.284,0-0.527,0.071
			c-0.342,0.086-0.655,0.299-0.911,0.598c-0.556-0.285-1.068-0.755-1.538-1.21c-0.071-0.014-0.071,0.086-0.086,0.143v0.64
			l0.044,0.841c-0.015,0.099-0.129,0.17-0.285,0.227c-0.228,0.1-0.669,0.271-0.769,0.257c-0.058-0.014-0.115-0.058-0.129-0.115
			v-0.369h-2.491c0,0.839-0.015,1.452,0.057,1.794c0.17,0.299,0.555,0.299,0.897,0.313c0.854,0.029,1.737,0.029,2.591-0.014
			c0.399-0.058,0.598-0.342,0.727-0.826c0.128-0.499,0.256-0.997,0.355-1.51l0.257,0.014c0.014,0.57,0.043,1.168,0.185,1.723
			c0.128,0.285,0.427,0.513,0.683,0.67c-0.669,1.011-1.808,1.096-2.961,1.111c-0.954,0-1.923,0.042-2.834-0.086
			c-0.356-0.057-0.698-0.171-0.926-0.484l-0.071-0.171l-0.057-0.27c-0.043-1.268-0.014-2.507-0.028-3.817
			c-0.826,0.712-1.623,1.381-2.535,1.88c-0.071-0.014-0.142-0.114-0.214-0.114c-0.028,0.84,0.171,1.623,0.271,2.435
			c0,0.199,0.043,0.413-0.114,0.57c-0.242,0.27-0.641,0.099-0.911-0.014c-0.399-0.229-0.613-0.684-0.57-1.14
			c0.128-0.598,0.256-1.296,0.185-1.965c-0.256-0.484-0.811-0.641-1.282-0.783l0.015-0.299c0.498,0.014,1.125,0.114,1.495-0.285
			l0.584-1.139l1.068-2.264l0.598-1.368l0.285,0.101c-0.171,0.541-0.356,1.096-0.542,1.609l2.193,0.014
			c0.029-0.656-0.013-1.282,0-1.908h-0.854c-0.242,0-0.57,0.071-0.826,0.128c-0.071-0.2-0.199-0.37-0.27-0.57h1.95l0.015-1.609
			l-0.043-1.011c0.484,0.114,0.982,0.256,1.41,0.413c0.099,0.057,0.142,0.157,0.085,0.256c-0.185,0.185-0.341,0.356-0.341,0.442
			v1.509h1.68v-1.466l-0.029-1.183c0.556,0.143,0.997,0.271,1.509,0.442c0.086,0.028,0.143,0.157,0.058,0.256
			c-0.129,0.129-0.442,0.313-0.442,0.427v1.524h0.911l0.599-0.868c0.057-0.086,0.213-0.1,0.27-0.029
			c0.399,0.342,0.812,0.741,1.154,1.125c0.056,0.086,0.028,0.214-0.086,0.214h-2.819v1.908l1.068-0.014l0.612-0.826
			c0.071-0.057,0.171-0.072,0.242-0.015c0.413,0.385,0.655,0.57,1.111,1.068c0.071,0.1-0.015,0.199-0.086,0.228h-3.374
			c0.911,1.339,2.363,2.164,3.844,2.577L85.968,18.806z M74.904,16.542c-0.086,0.1-0.214,0.157-0.342,0.114l-0.17-0.143
			c-0.456-0.811-0.983-1.609-1.71-2.264l0.115-0.256c0.868,0.299,1.893,0.541,2.42,1.41C75.374,15.802,75.189,16.243,74.904,16.542"
			/>
		<path d="M96.09,14.72l-0.428,0.911c0.2,1.296,0.656,2.549,1.282,3.646c0.584-0.926,0.954-2.307,1.011-4.557H96.09z M91.732,13.153
			l-0.014,1.809h0.129c0.355-0.584,0.725-1.182,0.996-1.809H91.732z M100.86,22.993c-0.84-0.341-1.338-0.1-1.794,0.498
			c-1.068-0.911-1.353-1.452-2.108-2.634c-0.94,1.04-2.392,2.079-3.83,2.649l-0.185-0.228c1.296-0.783,2.634-1.923,3.517-3.232
			c-0.527-1.182-0.94-2.478-1.082-3.817c-0.542,0.854-0.855,1.196-1.396,1.809l-0.242-0.157c0.484-0.798,0.94-1.538,1.239-2.506
			h-2.193c-0.299,0.427-0.669,0.826-1.011,1.239h0.712l0.57-0.513c0.128-0.057,0.413,0.228,0.598,0.384l0.37,0.413
			c0.1,0.257-0.342,0.228-0.513,0.357c-0.484,0.341-0.954,0.783-1.466,1.082c0.185,0.057,0.37,0.128,0.541,0.227
			c0.17,0.243-0.371,0.3-0.556,0.47v0.1l2.307-0.57l0.128,0.214c-0.783,0.385-1.623,0.712-2.435,1.025v2.521
			c0,0.569-0.94,0.968-1.452,1.224c-0.128-0.868-0.499-1.125-1.581-1.395l0.057-0.271c0.57,0.086,1.196,0.214,1.766,0.157
			c0.128-0.014,0.157-0.114,0.157-0.199v-1.595c-0.527,0.185-0.912,0.299-1.41,0.512c-0.299,0.128-0.456,0.285-0.698,0.513
			c-0.071,0.1-0.156,0.114-0.213,0c-0.2-0.413-0.414-0.854-0.584-1.281c-0.029-0.114,0.185-0.043,0.298-0.071l2.607-0.542v-0.583
			l-0.043-0.784c0.256,0.071,0.498,0.142,0.754,0.214c0.271-0.37,0.485-0.798,0.698-1.196h-1.025
			c-1.054,1.124-2.406,1.837-3.702,2.406l-0.171-0.199c0.939-0.655,1.879-1.339,2.691-2.193c-0.441,0-0.869,0.057-1.296,0.114
			l-0.256-0.541h1.951c0.384-0.37,0.683-0.84,0.996-1.239h-2.079c-0.37,0-0.896,0.042-1.509,0.128l-0.27-0.541h2.948v-1.809h-1.068
			c-0.342,0-0.656,0.086-0.983,0.143l-0.285-0.556h2.321c0.015-0.697-0.029-1.466-0.057-2.136c0.655,0.143,1.025,0.271,1.652,0.57
			c0.256,0.214-0.27,0.256-0.413,0.427c-0.085,0.071-0.085,0.143-0.1,0.214v0.911h0.385c0.128-0.156,0.242-0.37,0.455-0.498
			c0.157,0,0.357,0.185,0.556,0.299l0.285-0.655c0.484,0.199,0.954,0.47,1.381,0.811c0.214,0.257-0.342,0.2-0.513,0.342l-0.17,0.185
			c-0.286,0.613-0.641,1.168-1.026,1.752h0.271c0.199-0.214,0.412-0.456,0.612-0.669c0.057-0.057,0.143-0.043,0.228,0.028
			c0.285,0.214,0.569,0.456,0.883,0.727c0.455-1.368,0.712-2.792,0.726-4.344c0.598,0.157,1.167,0.342,1.709,0.598
			c0.156,0.2-0.185,0.313-0.328,0.385c-0.427,0.213-0.327,0.612-0.456,0.925c-0.142,0.556-0.284,1.154-0.498,1.695h2.449
			l0.555-0.698c0.058-0.043,0.143-0.057,0.2-0.028c0.37,0.256,0.698,0.598,0.969,0.954c0.085,0.099,0,0.185-0.129,0.185h-1.182
			c-0.085,1.994-0.498,3.859-1.538,5.454c0.955,1.153,2.151,2.064,3.461,2.577L100.86,22.993z"/>
		<path d="M105.557,18.066h4.913v-1.253h-4.913V18.066z M105.543,19.746h4.927v-1.267h-4.927V19.746z M108.348,21.882
			c0.598,0.043,1.21,0.171,1.837,0.199c0.128,0,0.285-0.099,0.285-0.27l0.014-1.652h-4.927v1.78c0,0.356,0.029,0.698,0.043,1.068
			c-0.014,0.086-0.114,0.128-0.171,0.171c-0.313,0.128-0.598,0.299-0.94,0.385c-0.1-0.015-0.129-0.1-0.171-0.157
			c0.042-0.513,0.057-1.139,0.057-1.694v-4.956c0-0.342-0.043-0.484-0.043-0.797c0-0.1,0.2-0.057,0.356,0
			c0.342,0.142,0.57,0.241,1.082,0.441h4.557l0.47-0.484c0.1-0.086,0.228-0.071,0.313-0.014l0.983,0.598
			c0.071,0.057,0.142,0.17,0.043,0.256c-0.186,0.157-0.314,0.228-0.47,0.427v3.489v1.766c0,0.612-1.011,0.94-1.624,1.125
			c-0.156-0.499-0.47-0.94-0.982-1.154c-0.242-0.099-0.499-0.2-0.769-0.271L108.348,21.882z M106.582,10.419
			c0.712,0.1,1.41,0.2,2.022,0.527c0.143,0.086,0.328,0.313,0.328,0.527c-0.014,0.313-0.243,0.655-0.47,0.755l3.731,0.028
			l0.74-0.897c0.043-0.086,0.185-0.071,0.271-0.057c0.413,0.385,0.825,0.712,1.196,1.153c0.057,0.086,0.028,0.214-0.071,0.214
			h-6.252l0.641,0.342c0.057,0.057,0.043,0.185-0.043,0.242c-0.156,0.114-0.498,0.071-0.769,0.156
			c-0.982,0.556-1.979,0.926-2.918,1.325l2.349,0.029l3.403-0.129l0.057-0.028c-0.541-0.427-1.125-0.812-1.723-1.111l0.085-0.228
			c1.111,0.242,2.179,0.47,2.977,0.912c0.327,0.185,0.669,0.512,0.74,0.825c0.071,0.357,0.128,0.527,0.014,0.883
			c-0.042,0.128-0.128,0.228-0.199,0.256c-0.427,0.129-0.584-0.384-0.911-0.683l-0.456-0.399l-2.919,0.314l-3.774,0.327
			c-0.299,0.028-0.584,0.128-0.868,0.185l-0.071-0.028c-0.129-0.2-0.442-0.727-0.456-0.897c-0.029-0.256,0.498-0.143,0.74-0.256
			c0.655-0.229,1.026-0.57,1.709-1.068c0.399-0.3,0.812-0.642,1.153-0.969h-3.773c-0.356,0.057-0.726,0.071-1.068,0.185
			l-0.342-0.598h6.081l-0.143-0.299c-0.299-0.47-0.669-0.968-1.139-1.31L106.582,10.419z"/>
		<path d="M120.706,14.933c0.1-1.424,0.057-3.033-0.043-4.5c0.641,0.114,1.282,0.242,1.908,0.399
			c0.071,0.043,0.128,0.142,0.071,0.228c-0.142,0.171-0.441,0.185-0.512,0.427l-0.043,2.264l-0.085,1.182h3.688l0.626-0.997
			c0.029-0.071,0.2-0.071,0.299,0c0.484,0.356,0.969,0.755,1.439,1.182c0.028,0.057,0.028,0.142,0,0.199l-0.072,0.043h-5.254
			c0.157,1.31,0.684,2.905,1.708,4.059c1.169,1.295,2.55,2.249,4.016,2.904l-0.042,0.214l-0.669-0.028
			c-0.627-0.029-1.111,0.313-1.567,0.712c-2.464-2.065-3.83-4.771-3.973-7.861l-0.185-0.014c-0.199,2.407-0.869,4.77-2.934,6.365
			c-1.01,0.784-2.05,1.438-3.218,1.823l-0.427,0.142l-0.128-0.242c2.008-1.025,3.959-2.876,4.77-5.026
			c0.385-1.026,0.527-1.994,0.612-3.048h-3.802c-0.369,0-0.754,0.057-1.238,0.143l-0.385-0.57H120.706z"/>
		<path d="M142.134,20.401h-5.482v2.107c0,0.684-1.04,0.983-1.652,1.168c-0.057-0.47-0.342-0.94-0.797-1.125
			c-0.271-0.142-0.57-0.256-0.869-0.37l0.043-0.299c0.598,0.128,1.182,0.271,1.822,0.285c0.129,0,0.243-0.086,0.271-0.214v-1.552
			h-4.272c-0.328,0-0.797,0.099-1.096,0.142l-0.285-0.598h5.639v-0.228l-0.057-0.854c0.299,0.1,0.598,0.199,0.883,0.313h0.071
			c0.285-0.256,0.513-0.512,0.783-0.797h-3.731c-0.242,0-0.484,0.043-0.84,0.128l-0.342-0.598l5.226,0.014l0.499-0.356
			c0.071-0.071,0.27-0.085,0.37,0c0.498,0.328,0.769,0.541,1.054,0.755c0.056,0.043,0.071,0.128,0.042,0.199
			c-0.057,0.114-0.427,0.043-0.64,0.1c-0.684,0.185-1.339,0.47-1.98,0.754c0.527,0.243-0.156,0.314-0.156,0.499v0.071h3.659
			l0.57-0.641c0.043-0.042,0.128-0.028,0.185-0.014c0.413,0.314,0.684,0.484,1.139,0.855
			C142.277,20.23,142.234,20.401,142.134,20.401 M142.191,17.254c-0.213,0.114-0.484,0.028-0.584,0.128
			c-0.527,0.342-0.997,0.669-1.466,1.068l-0.243-0.114c0.229-0.37,0.442-0.812,0.598-1.225h-9.54
			c-0.014,0.584-0.128,1.182-0.726,1.425c-0.2,0.113-0.499,0.099-0.698-0.043c-0.128-0.128-0.156-0.314-0.1-0.484
			c0.086-0.185,0.299-0.271,0.428-0.413c0.427-0.47,0.754-0.983,0.768-1.638l0.242-0.014c0.029,0.227,0.058,0.484,0.058,0.712h0.555
			l-0.157-2.52c-0.057-0.969-0.156-1.71-0.256-2.849c0.47,0.171,0.783,0.328,1.196,0.47c0.541-0.327,1.096-0.683,1.552-1.21
			l0.826,0.94c0.014,0.071-0.029,0.156-0.1,0.185c-0.47-0.086-0.854,0.085-1.566,0.342l-0.684,0.242l0.043,0.911l0.727-0.014
			l0.469-0.541c0.029-0.057,0.171-0.1,0.271,0c0.342,0.27,0.555,0.527,0.854,0.854c0.328-0.342,0.712-0.769,1.011-1.139
			c-0.256-0.313-0.612-0.541-0.939-0.741l0.142-0.184c0.385,0.142,0.754,0.313,1.125,0.469c0.27-0.413,0.527-0.797,0.769-1.224
			c0.342,0.185,0.669,0.413,0.982,0.683c0.029,0.028,0.043,0.086,0.014,0.128c-0.113,0.072-0.27,0.072-0.384,0.128l-0.698,0.67
			c0.314,0.27,0.755,0.655,0.584,1.125c-0.057,0.171-0.156,0.356-0.356,0.37l0.684,0.498c0.028,0.043,0.085,0.1,0.042,0.157
			c-0.113,0.114-0.299,0.043-0.441,0.099c-0.185,0.157-0.384,0.285-0.57,0.442c0.371,0.228,0.784,0.427,0.898,0.812l0.028,0.071
			c0.043,0.285-0.1,0.555-0.342,0.726c-0.114,0.057-0.227-0.028-0.313-0.085c-0.271-0.371-0.598-0.712-0.911-1.026l-0.114,0.072
			c-0.584,0.37-1.211,0.783-1.852,1.068l-0.185-0.2c0.598-0.399,1.14-0.854,1.652-1.367c-0.313-0.256-0.555-0.456-0.982-0.698
			l0.085-0.184c0.498,0.128,0.869,0.298,1.296,0.441c0.313-0.285,0.513-0.67,0.783-0.997c-0.171-0.271-0.356-0.512-0.57-0.783
			c-0.298,0.256-1.096,0.854-1.68,1.196l-0.199-0.143l0.228-0.241h-2.065l0.085,1.381h0.684l0.513-0.67
			c0.042-0.056,0.199-0.028,0.242,0c0.342,0.286,0.555,0.485,0.883,0.84c0.057,0.058,0.099,0.157,0.057,0.228l-0.128,0.057h-2.208
			l0.043,1.211h6.621l0.1-1.139h-0.712c-0.143,0-0.427,0.056-0.641,0.099l-0.299-0.555h1.68l0.128-1.381l-0.854-0.014
			c-0.213,0-0.384,0.056-0.626,0.099l-0.427-0.555h1.922l0.1-1.068h-0.997c-0.228,0-0.527,0.057-0.741,0.099l-0.341-0.555
			l1.922-0.014l0.47-0.47c0.028-0.043,0.171-0.029,0.214,0l1.01,0.626c0.043,0.071,0.115,0.157,0.043,0.243
			c-0.142,0.185-0.441,0.185-0.513,0.413l-0.384,4.172l0.299,0.014l0.456-0.455c0.042-0.044,0.171-0.072,0.242-0.015
			c0.384,0.313,0.655,0.513,0.997,0.883C142.248,17.14,142.234,17.211,142.191,17.254"/>
	</g>
	<rect x="58.316" y="27.219" fill="#F26522" width="128.934" height="1.025"/>
</g>
</svg>
