<?xml version="1.0" encoding="UTF-8"?>
<svg width="44px" height="44px" viewBox="0 0 44 44" version="1.1" xmlns="http://www.w3.org/2000/svg" xmlns:xlink="http://www.w3.org/1999/xlink">
    <!-- Generator: Sketch 51.2 (57519) - http://www.bohemiancoding.com/sketch -->
    <title>icon_admissions</title>
    <desc>Created with Sketch.</desc>
    <defs></defs>
    <g id="icon_admissions" stroke="none" stroke-width="1" fill="none" fill-rule="evenodd">
        <g id="Group-3">
            <path d="M43.8976629,22 C43.8976629,34.1505 34.1588315,44 22.1448539,44 C10.1313708,44 0.392044944,34.1505 0.392044944,22 C0.392044944,9.85 10.1313708,0 22.1448539,0 C34.1588315,0 43.8976629,9.85 43.8976629,22" id="Fill-7" fill="#F8A31A"></path>
            <path d="M17.6283281,27.65965 C17.3312045,27.96015 16.8457213,27.96015 16.5485978,27.65965 C16.2519685,27.35965 16.2519685,26.86815 16.5485978,26.56765 L24.5808225,18.44515 C24.8774517,18.14465 25.3634292,18.14465 25.6600584,18.44515 C25.957182,18.74515 25.957182,19.23665 25.6600584,19.53665 L17.6283281,27.65965 Z M24.4508,14.77615 L13.0508449,26.30615 L12.3601933,31.89615 L17.8873843,31.19715 L29.2873393,19.66765 L24.4508,14.77615 Z" id="Fill-8" fill="#FFFFFF"></path>
            <path d="M30.9280944,13.11695 C29.5927685,11.76595 27.4273753,11.76595 26.0920494,13.11695 L25.228364,13.99045 L30.064409,18.88145 L30.9280944,18.00845 C32.2639146,16.65745 32.2639146,14.46745 30.9280944,13.11695" id="Fill-9" fill="#FFFFFF"></path>
        </g>
    </g>
</svg>