<?xml version="1.0" encoding="UTF-8"?>
<svg width="44px" height="44px" viewBox="0 0 44 44" version="1.1" xmlns="http://www.w3.org/2000/svg" xmlns:xlink="http://www.w3.org/1999/xlink">
    <!-- Generator: Sketch 51.2 (57519) - http://www.bohemiancoding.com/sketch -->
    <title>icon_why_eduhk</title>
    <desc>Created with Sketch.</desc>
    <defs></defs>
    <g id="icon_why_eduhk" stroke="none" stroke-width="1" fill="none" fill-rule="evenodd">
        <g id="Group-6">
            <path d="M43.5908494,22 C43.5908494,34.1505 33.852018,44 21.8380404,44 C9.8245573,44 0.0852314607,34.1505 0.0852314607,22 C0.0852314607,9.85 9.8245573,0 21.8380404,0 C33.852018,0 43.5908494,9.85 43.5908494,22" id="Fill-22" fill="#7D57C1"></path>
            <path d="M16.2043101,14.6206 C16.2043101,16.0991 17.3942876,17.3026 18.8551865,17.3026 C20.3165798,17.3026 21.5055685,16.0991 21.5055685,14.6206 C21.5055685,13.1416 20.3165798,11.9401 18.8551865,11.9401 C17.3942876,11.9401 16.2043101,13.1416 16.2043101,14.6206" id="Fill-23" fill="#FFFFFF"></path>
            <path d="M14.886782,18.645 L20.173209,18.645 C20.9098382,18.645 21.5075461,19.249 21.5075461,19.9945 L21.5075461,24.009 C21.5075461,23.2635 20.9098382,22.659 20.173209,22.659 L14.886782,22.659 C14.1496584,22.659 13.5529393,22.0545 13.5529393,21.3095 L13.5529393,17.2955 C13.5529393,18.041 14.1496584,18.645 14.886782,18.645" id="Fill-24" fill="#FFFFFF"></path>
            <path d="M28.7888539,26.6963 L23.5029213,26.6963 C22.7657978,26.6963 22.1680899,27.3003 22.1680899,28.0458 L22.1680899,32.0603 C22.1680899,31.3148 22.7657978,30.7103 23.5029213,30.7103 L28.7888539,30.7103 C29.5264719,30.7103 30.1236854,30.1058 30.1236854,29.3608 L30.1236854,25.3473 C30.1236854,26.0923 29.5264719,26.6963 28.7888539,26.6963" id="Fill-25" fill="#FFFFFF"></path>
            <path d="M28.7888539,21.3286 L23.5029213,21.3286 C22.7657978,21.3286 22.1680899,21.9331 22.1680899,22.6786 L22.1680899,26.6926 C22.1680899,25.9471 22.7657978,25.3426 23.5029213,25.3426 L28.7888539,25.3426 C29.5264719,25.3426 30.1236854,24.7381 30.1236854,23.9936 L30.1236854,19.9796 C30.1236854,20.7246 29.5264719,21.3286 28.7888539,21.3286" id="Fill-26" fill="#FFFFFF"></path>
            <path d="M14.886782,24.0132 L20.173209,24.0132 C20.9098382,24.0132 21.5075461,24.6172 21.5075461,25.3622 L21.5075461,29.3767 C21.5075461,28.6312 20.9098382,28.0267 20.173209,28.0267 L14.886782,28.0267 C14.1496584,28.0267 13.5529393,27.4222 13.5529393,26.6772 L13.5529393,22.6632 C13.5529393,23.4087 14.1496584,24.0132 14.886782,24.0132" id="Fill-27" fill="#FFFFFF"></path>
            <path d="M28.7888539,15.96605 L23.5029213,15.96605 C22.7657978,15.96605 22.1680899,16.57055 22.1680899,17.31555 L22.1680899,21.33005 C22.1680899,20.58455 22.7657978,19.98005 23.5029213,19.98005 L28.7888539,19.98005 C29.5264719,19.98005 30.1236854,19.37555 30.1236854,18.63005 L30.1236854,14.61655 C30.1236854,15.36205 29.5264719,15.96605 28.7888539,15.96605" id="Fill-28" fill="#FFFFFF"></path>
        </g>
    </g>
</svg>