<?xml version="1.0" encoding="UTF-8"?>
<svg width="90px" height="90px" viewBox="0 0 90 90" version="1.1" xmlns="http://www.w3.org/2000/svg" xmlns:xlink="http://www.w3.org/1999/xlink">
    <!-- Generator: Sketch 51.2 (57519) - http://www.bohemiancoding.com/sketch -->
    <title>icon_senior_year_large</title>
    <desc>Created with Sketch.</desc>
    <defs></defs>
    <g id="icon_senior_year_large" stroke="none" stroke-width="1" fill="none" fill-rule="evenodd">
        <g id="Group-4" transform="translate(26.000000, 25.000000)" fill="#4CAF50">
            <path d="M3.26132404,36.6666667 L34.7874564,36.6666667 L34.7874564,13.3333333 L3.26132404,13.3333333 L3.26132404,36.6666667 Z M7.6097561,5.55555556 L7.6097561,7.77777778 L10.8710801,7.77777778 L10.8710801,5.55555556 L27.1777003,5.55555556 L27.1777003,7.77777778 L30.4390244,7.77777778 L30.4390244,5.55555556 L34.7874564,5.55555556 L34.7874564,10 L3.26132404,10 L3.26132404,5.55555556 L7.6097561,5.55555556 Z M30.4390244,2.22222222 L30.4390244,0 L27.1777003,0 L27.1777003,2.22222222 L10.8710801,2.22222222 L10.8710801,0 L7.6097561,0 L7.6097561,2.22222222 L0,2.22222222 L0,40 L38.0487805,40 L38.0487805,2.22222222 L30.4390244,2.22222222 Z" id="Fill-11"></path>
            <polygon id="Fill-12" points="14.6341463 19.2592593 17.5609756 19.2592593 17.5609756 16.2962963 14.6341463 16.2962963"></polygon>
            <polygon id="Fill-13" points="20.4878049 19.2592593 23.4146341 19.2592593 23.4146341 16.2962963 20.4878049 16.2962963"></polygon>
            <polygon id="Fill-14" points="27.804878 19.2592593 30.7317073 19.2592593 30.7317073 16.2962963 27.804878 16.2962963"></polygon>
            <polygon id="Fill-15" points="14.6341463 26.6666667 17.5609756 26.6666667 17.5609756 23.7037037 14.6341463 23.7037037"></polygon>
            <polygon id="Fill-16" points="20.4878049 26.6666667 23.4146341 26.6666667 23.4146341 23.7037037 20.4878049 23.7037037"></polygon>
            <polygon id="Fill-17" points="27.804878 26.6666667 30.7317073 26.6666667 30.7317073 23.7037037 27.804878 23.7037037"></polygon>
            <polygon id="Fill-18" points="14.6341463 32.5925926 17.5609756 32.5925926 17.5609756 29.6296296 14.6341463 29.6296296"></polygon>
            <polygon id="Fill-19" points="7.31707317 26.6666667 10.2439024 26.6666667 10.2439024 23.7037037 7.31707317 23.7037037"></polygon>
            <polygon id="Fill-20" points="7.31707317 32.5925926 10.2439024 32.5925926 10.2439024 29.6296296 7.31707317 29.6296296"></polygon>
            <polygon id="Fill-21" points="20.4878049 32.5925926 23.4146341 32.5925926 23.4146341 29.6296296 20.4878049 29.6296296"></polygon>
        </g>
    </g>
</svg>