<?xml version="1.0" encoding="UTF-8"?>
<svg width="24px" height="24px" viewBox="0 0 24 24" version="1.1" xmlns="http://www.w3.org/2000/svg" xmlns:xlink="http://www.w3.org/1999/xlink">
    <!-- Generator: Sketch 51.2 (57519) - http://www.bohemiancoding.com/sketch -->
    <title>icon_youku</title>
    <desc>Created with Sketch.</desc>
    <defs></defs>
    <g id="icon_youku" stroke="none" stroke-width="1" fill="none" fill-rule="evenodd">
        <g id="Group-12" fill="#666666" fill-rule="nonzero">
            <g id="46a5af9686958676ac62b6c82cb49b18">
                <path d="M13.0994333,15.3869388 C13.3308383,15.2130612 13.5457143,14.6669388 13.5457143,14.2432653 L13.5457143,14.1159184 L13.0457143,14.1159184 L13.0457143,14.7697959 C13.0498465,15.3746939 13.0539787,15.4236735 13.0994333,15.3869388 Z" id="Shape"></path>
                <path d="M14.1085714,15.3036735 L14.042449,15.1738776 L14.037551,14.644898 L14.0326531,14.1159184 L13.8563265,14.1159184 L13.8563265,14.2628571 C13.8563265,14.7012245 13.7338776,15.2840816 13.5771429,15.597551 C13.4889796,15.7763265 13.4914286,15.7763265 13.2538776,15.6391837 L13.0457143,15.5191837 L13.0457143,16.0114286 L14.7820408,16.0114286 L14.7820408,15.6636735 L14.6155102,15.6391837 C14.3510204,15.602449 14.2114286,15.5093878 14.1085714,15.3036735 Z" id="Shape"></path>
                <path d="M14.5444898,14.5077551 C14.5444898,15.0612245 14.5960362,15.1616327 14.9104692,15.1934694 L15.0444898,15.2057143 L15.0444898,14.6620408 L15.0444898,14.1183673 L14.5444898,14.1183673 L14.5444898,14.5077551 Z" id="Shape"></path>
                <path d="M13.0457143,16.7828571 C13.0457143,17.0620408 13.0677551,17.1428571 13.1510204,17.1942857 C13.2097959,17.2310204 13.2563265,17.2334694 13.9102041,17.2334694 C14.6693878,17.2334694 14.7110204,17.2285714 14.76,17.1232653 C14.7722449,17.0938776 14.7820408,16.9665306 14.7820408,16.8195918 L14.7820408,16.562449 L13.0457143,16.562449 L13.0457143,16.7828571 Z" id="Shape"></path>
                <polygon id="Shape" points="14.3538776 13.2073469 14.3538776 12.8914286 13.8538776 12.8914286 13.8538776 13.5232653 14.3538776 13.5232653"></polygon>
                <path d="M12,0 C5.37306122,0 0,5.37306122 0,12 C0,18.6269388 5.37306122,24 12,24 C18.6269388,24 24,18.6269388 24,12 C24,5.37306122 18.6269388,0 12,0 Z M14.1844898,7.35673469 C14.1991837,6.64897959 14.2016327,6.6244898 14.2481633,6.53387755 C14.2946939,6.43346939 14.3681633,6.36979592 14.4857143,6.32571429 C14.5934694,6.28653061 14.8506122,6.30122449 14.9583673,6.35755102 C15.0636735,6.41142857 15.1493878,6.52897959 15.1763265,6.65632653 C15.1885714,6.71265306 15.1983673,6.98693878 15.1983673,7.29061224 L15.2008163,7.82693878 L15.9061224,7.11183673 C16.4057143,6.60734694 16.6359184,6.3844898 16.6995918,6.35510204 C16.7461224,6.33061224 16.8440816,6.30857143 16.9102041,6.30122449 C17.0155102,6.29387755 17.0473469,6.29877551 17.1404082,6.34530612 C17.3436735,6.44326531 17.4636735,6.65142857 17.4416327,6.85959184 C17.4367347,6.91836735 17.404898,7.01632653 17.3681633,7.08734694 C17.2995918,7.21959184 17.282449,7.23918367 16.682449,7.80244898 C16.4938776,7.97877551 16.3420408,8.13061224 16.3420408,8.14285714 C16.3420408,8.15265306 16.5820408,8.38285714 16.8734694,8.65469388 C17.4808163,9.2155102 17.5028571,9.24244898 17.517551,9.50204082 C17.5322449,9.75428571 17.4489796,9.89877551 17.2383673,9.97959184 C17.1110204,10.0285714 16.9077551,10.0138776 16.7853061,9.95020408 C16.7338776,9.92326531 16.3665306,9.59755102 15.955102,9.21306122 C15.5485714,8.83591837 15.2106122,8.52734694 15.2032653,8.52734694 C15.1983673,8.52734694 15.1934694,8.77714286 15.1934694,9.08571429 C15.1934694,9.79836735 15.1714286,9.88408163 14.9706122,9.99428571 C14.9020408,10.0285714 14.8555102,10.0383673 14.6914286,10.0383673 C14.517551,10.0383673 14.4808163,10.0334694 14.395102,9.98693878 C14.3142857,9.94530612 14.2873469,9.91836735 14.2383673,9.82040816 L14.1795918,9.70285714 L14.1746939,8.89469388 C14.1722449,8.45142857 14.1771429,7.75836735 14.1844898,7.35673469 Z M8.42938776,6.18122449 C8.66693878,6.12734694 9.00489796,6.14204082 9.24734694,6.21306122 C9.88163265,6.39918367 10.3591837,6.90367347 10.5428571,7.58204082 C10.6040816,7.80244898 10.6163265,8.24326531 10.5697959,8.51265306 C10.5036735,8.92408163 10.3469388,9.24979592 10.0995918,9.51183673 C9.76163265,9.8644898 9.34530612,10.0334694 8.79428571,10.0359184 C8.26285714,10.0383673 7.85387755,9.87918367 7.51346939,9.54367347 C6.8522449,8.88244898 6.75918367,7.73142857 7.30530612,6.94285714 C7.57469388,6.55346939 7.97632653,6.27918367 8.42938776,6.18122449 Z M11.6963265,13.0334694 C11.7085714,13.0530612 11.637551,13.1412245 11.4122449,13.3836735 L11.2555102,13.5502041 L10.9126531,13.2563265 C10.7240816,13.0946939 10.4938776,12.8987755 10.4008163,12.8253061 C10.3077551,12.7518367 10.2220408,12.6783673 10.204898,12.6661224 C10.1828571,12.6465306 10.2097959,12.604898 10.3714286,12.4236735 C10.4767347,12.3036735 10.5697959,12.2057143 10.5795918,12.2057143 C10.6163265,12.2008163 11.6669388,12.9844898 11.6963265,13.0334694 Z M4.56979592,11.4220408 C4.25387755,11.3289796 4.11183673,11.0816327 4.19265306,10.7681633 C4.20979592,10.7020408 4.34938776,10.3714286 4.50122449,10.0310204 C4.65306122,9.69061224 4.77795918,9.40408163 4.77795918,9.39183673 C4.77795918,9.37714286 4.45469388,8.81632653 4.06285714,8.14040816 C3.28897959,6.82285714 3.27918367,6.80081633 3.30612245,6.5755102 C3.32816327,6.38693878 3.4677551,6.2277551 3.67102041,6.15428571 C3.85714286,6.08571429 4.04816327,6.13959184 4.20734694,6.30122449 C4.29306122,6.38693878 4.41795918,6.59020408 4.81959184,7.28081633 C5.09632653,7.76081633 5.32653061,8.15265306 5.33387755,8.15510204 C5.33877551,8.15510204 5.49795918,7.8122449 5.68653061,7.38857143 C5.87510204,6.96734694 6.06122449,6.55346939 6.10285714,6.46530612 C6.25714286,6.13714286 6.46285714,6.05632653 6.80816327,6.18612245 C6.96,6.24244898 7.08,6.35755102 7.11673469,6.48489796 C7.15346939,6.60979592 7.15346939,6.67836735 7.11918367,6.8155102 C7.08244898,6.95510204 5.21387755,11.0914286 5.1355102,11.2016327 C4.97877551,11.4293878 4.8122449,11.4955102 4.56979592,11.4220408 Z M11.8995918,17.1697959 C11.8236735,17.4636735 11.6718367,17.6473469 11.4318367,17.7306122 C11.3069388,17.7746939 11.2726531,17.7771429 10.8073469,17.7771429 C10.3444898,17.7771429 10.3053061,17.7746939 10.1828571,17.7306122 C9.94285714,17.6473469 9.82040816,17.4906122 9.77387755,17.2114286 C9.75918367,17.1330612 9.75183673,16.56 9.75183673,15.6783673 L9.75183673,14.2726531 L9.68571429,14.2726531 C9.60979592,14.2726531 9.61714286,14.2506122 9.5755102,14.6081633 C9.54122449,14.884898 9.46285714,15.2718367 9.38693878,15.5338776 C9.15918367,16.3102041 8.77714286,16.9493878 8.09142857,17.6938776 L7.96408163,17.8310204 L7.69959184,17.6326531 L7.43265306,17.4342857 L7.4277551,17.6326531 L7.42285714,17.8285714 L6.71510204,17.8285714 L6.71020408,16.4497959 L6.70530612,15.0710204 L6.54122449,15.2987755 C6.45306122,15.4261224 6.36489796,15.5461224 6.35020408,15.5681633 C6.32571429,15.604898 6.30857143,15.5926531 6.09061224,15.4016327 C5.96326531,15.2889796 5.84326531,15.1836735 5.82122449,15.1640816 C5.78204082,15.1322449 5.7844898,15.1273469 5.94857143,14.8971429 C6.48734694,14.1428571 6.92326531,13.2710204 7.20244898,12.3893878 C7.24408163,12.2546939 7.27836735,12.1469388 7.28081633,12.1469388 C7.2955102,12.1444898 7.9322449,12.3893878 7.9444898,12.4016327 C7.98122449,12.4359184 7.72653061,13.202449 7.53306122,13.6408163 L7.42530612,13.8808163 L7.42530612,17.3240816 L7.57469388,17.1771429 C8.0644898,16.6946939 8.49306122,16.0236735 8.67673469,15.4555102 C8.77959184,15.1420408 8.88489796,14.5787755 8.88489796,14.3510204 L8.88489796,14.275102 L7.68,14.275102 L7.68489796,13.9738776 L7.68979592,13.675102 L8.29469388,13.6702041 L8.90204082,13.6653061 L8.90693878,12.9085714 L8.91183673,12.1542857 L9.27183673,12.1493878 L9.63183673,12.1444898 L9.63183673,13.6628571 L11.8408163,13.6628571 L11.8408163,14.275102 L10.4595918,14.275102 L10.4595918,15.6416327 C10.4595918,16.9053061 10.4620408,17.0155102 10.4938776,17.0791837 C10.5477551,17.1893878 10.6310204,17.2212245 10.8440816,17.2114286 C11.0522449,17.2016327 11.1330612,17.164898 11.1869388,17.0571429 C11.2236735,16.9861224 11.2702041,16.6604082 11.2971429,16.2808163 C11.3044898,16.1828571 11.3167347,16.0897959 11.3216327,16.0726531 C11.3314286,16.0457143 11.3755102,16.0530612 11.6669388,16.1363265 C11.8506122,16.1902041 12.004898,16.2367347 12.0097959,16.2440816 C12.0367347,16.2538776 11.9412245,17.0130612 11.8995918,17.1697959 Z M11.3093878,9.80326531 C11.155102,9.71020408 10.9518367,9.4922449 10.8783673,9.3355102 C10.8440816,9.26938776 10.797551,9.13714286 10.7730612,9.04408163 C10.7265306,8.88 10.7265306,8.8555102 10.7265306,7.78040816 C10.7265306,6.76163265 10.7289796,6.67836735 10.7632653,6.57795918 C10.804898,6.4555102 10.92,6.33061224 11.0155102,6.30122449 C11.0497959,6.28897959 11.1502041,6.28408163 11.2334694,6.28653061 C11.4318367,6.29142857 11.5273469,6.35265306 11.6130612,6.52653061 L11.6718367,6.64408163 L11.6816327,7.72897959 L11.6914286,8.81387755 L11.7428571,8.92408163 C11.8187755,9.08081633 11.9167347,9.18367347 12.0612245,9.24979592 C12.1689796,9.29632653 12.2106122,9.30612245 12.362449,9.30612245 C12.5240816,9.30857143 12.5510204,9.30122449 12.6734694,9.24244898 C12.8228571,9.16897959 12.9110204,9.08081633 12.9820408,8.92163265 L13.0334694,8.81387755 L13.0457143,7.74857143 C13.0555102,6.68816327 13.0604082,6.63673469 13.1289796,6.5044898 C13.2220408,6.32571429 13.4571429,6.24244898 13.677551,6.30612245 C13.804898,6.34285714 13.9004082,6.42857143 13.9591837,6.55591837 C14.0008163,6.64163265 14.0008163,6.66857143 14.0008163,7.78040816 C14.0008163,8.90693878 14.0008163,8.91673469 13.9567347,9.07346939 C13.8171429,9.55591837 13.4987755,9.8522449 12.9918367,9.98204082 C12.4089796,10.1314286 11.7306122,10.0579592 11.3093878,9.80326531 Z M15.4089796,15.4628571 C15.4016327,17.6179592 15.4089796,17.4930612 15.2644898,17.637551 C15.117551,17.7844898 15.0808163,17.7918367 14.037551,17.7991837 C12.8791837,17.8114286 12.7053061,17.7918367 12.5608163,17.6326531 C12.4383673,17.5004082 12.4457143,17.6302041 12.4383673,15.48 L12.4334694,13.5232653 L13.3420408,13.5232653 L13.3420408,12.8914286 L12.4334694,12.8914286 L12.4334694,12.5853061 L12.4334694,12.2791837 L15.4138776,12.2791837 L15.4138776,12.8914286 L14.5444898,12.8914286 L14.5493878,13.2 L14.5542857,13.5110204 L14.9853061,13.5159184 L15.4163265,13.5208163 L15.4089796,15.4628571 Z M18.4065306,16.3591837 C18.3991837,17.522449 18.4016327,17.5004082 18.2644898,17.64 C18.2008163,17.7036735 18.1542857,17.7281633 18.0465306,17.757551 C17.9216327,17.7918367 17.8383673,17.7942857 17.1012245,17.7942857 C16.3665306,17.7942857 16.2808163,17.7893878 16.1559184,17.757551 C15.9967347,17.7134694 15.8669388,17.6057143 15.8253061,17.4783673 C15.8057143,17.4195918 15.7983673,17.1453061 15.7934694,16.3567347 L15.7861224,15.3159184 L18.4138776,15.3159184 L18.4065306,16.3591837 Z M18.5510204,14.9828571 L17.0865306,14.9779592 L15.6195918,14.9730612 L15.6146939,14.6816327 L15.6097959,14.3926531 L16.8146939,14.3926531 L16.8097959,13.9910204 L16.804898,13.5918367 L16.5159184,13.5869388 L16.2269388,13.5820408 L16.1510204,13.8930612 C16.1118367,14.0644898 16.075102,14.2065306 16.0726531,14.2114286 C16.0702041,14.2163265 15.9428571,14.1942857 15.7885714,14.164898 C15.5730612,14.1257143 15.5093878,14.1061224 15.5093878,14.0816327 C15.5093878,14.0669388 15.5412245,13.9102041 15.5779592,13.7387755 C15.6685714,13.3371429 15.7591837,12.7983673 15.7763265,12.5608163 L15.7910204,12.3771429 L15.9208163,12.3893878 C15.9918367,12.3942857 16.1338776,12.4040816 16.2342857,12.4138776 L16.4155102,12.4285714 L16.4155102,12.4897959 C16.4155102,12.5240816 16.4008163,12.6391837 16.3861224,12.7493878 C16.3714286,12.8571429 16.3567347,12.962449 16.3567347,12.9795918 C16.3567347,13.0114286 16.3812245,13.0138776 16.5844898,13.0138776 L16.8122449,13.0138776 L16.8122449,12.5902041 L16.8122449,12.1665306 L17.4857143,12.1665306 L17.4857143,13.0138776 L17.9265306,13.0187755 L18.364898,13.0236735 L18.3697959,13.3028571 L18.3746939,13.5844898 L17.4857143,13.5844898 L17.4857143,14.3926531 L18.5510204,14.3926531 L18.5510204,14.9828571 Z M20.8040816,9.04408163 C20.7330612,9.30122449 20.6253061,9.4922449 20.4563265,9.64897959 C20.3804082,9.72244898 20.2677551,9.80816327 20.2114286,9.83755102 C19.9518367,9.97714286 19.5967347,10.0530612 19.1902041,10.0506122 C18.3355102,10.0481633 17.8040816,9.71755102 17.6179592,9.07102041 C17.5714286,8.91428571 17.5714286,8.9044898 17.5714286,7.77795918 L17.5714286,6.64408163 L17.6179592,6.54367347 C17.6742857,6.42122449 17.7502041,6.34530612 17.8506122,6.30857143 C17.8946939,6.29387755 17.9804082,6.28163265 18.0489796,6.27918367 C18.1959184,6.27918367 18.3404082,6.34530612 18.4089796,6.44571429 C18.5167347,6.60979592 18.5167347,6.6 18.5289796,7.76081633 L18.5387755,8.83591837 L18.5902041,8.94367347 C18.6563265,9.08081633 18.7665306,9.19102041 18.9036735,9.25714286 C18.9967347,9.30122449 19.0383673,9.30857143 19.2,9.30857143 C19.3616327,9.30857143 19.4032653,9.30122449 19.4987755,9.25469388 C19.6408163,9.18857143 19.7632653,9.06612245 19.8293878,8.92408163 L19.8808163,8.81387755 L19.8930612,7.73877551 C19.9053061,6.53142857 19.9004082,6.56571429 20.0497959,6.41387755 C20.155102,6.30857143 20.2897959,6.2644898 20.4367347,6.28653061 C20.6130612,6.31102041 20.7257143,6.39673469 20.8040816,6.56571429 L20.8506122,6.66367347 L20.8506122,7.76816327 C20.8506122,8.86530612 20.8506122,8.87755102 20.8040816,9.04408163 Z" id="Shape"></path>
                <path d="M8.28244898,8.98285714 C8.67428571,9.35020408 9.22530612,9.21306122 9.49714286,8.68408163 C9.60489796,8.47102041 9.64408163,8.05959184 9.58285714,7.8122449 C9.5044898,7.50122449 9.30857143,7.23918367 9.07346939,7.13142857 C8.77469388,6.99183673 8.48326531,7.0555102 8.23591837,7.31265306 C7.81959184,7.75591837 7.84163265,8.57142857 8.28244898,8.98285714 Z" id="Shape"></path>
                <path d="M16.6163265,17.2065306 C16.7118367,17.2383673 17.4881633,17.2383673 17.5836735,17.2065306 C17.7134694,17.162449 17.7208163,17.1232653 17.7208163,16.4669388 L17.7208163,15.8914286 L16.4767347,15.8914286 L16.4767347,16.4669388 C16.4791837,17.1232653 16.4865306,17.162449 16.6163265,17.2065306 Z" id="Shape"></path>
            </g>
        </g>
    </g>
</svg>