<?xml version="1.0" encoding="UTF-8"?>
<svg width="44px" height="44px" viewBox="0 0 44 44" version="1.1" xmlns="http://www.w3.org/2000/svg" xmlns:xlink="http://www.w3.org/1999/xlink">
    <!-- Generator: Sketch 51.2 (57519) - http://www.bohemiancoding.com/sketch -->
    <title>icon_senior_year</title>
    <desc>Created with Sketch.</desc>
    <defs></defs>
    <g id="icon_senior_year" stroke="none" stroke-width="1" fill="none" fill-rule="evenodd">
        <g id="Group-4">
            <path d="M43.795573,22 C43.795573,34.1505 34.0562472,44 22.042764,44 C10.0287865,44 0.289955056,34.1505 0.289955056,22 C0.289955056,9.85 10.0287865,0 22.042764,0 C34.0562472,0 43.795573,9.85 43.795573,22" id="Fill-10" fill="#4CAF50"></path>
            <path d="M14.5758652,29.5 L28.9129438,29.5 L28.9129438,19 L14.5758652,19 L14.5758652,29.5 Z M16.5533933,15.5 L16.5533933,16.5 L18.0365393,16.5 L18.0365393,15.5 L25.4522697,15.5 L25.4522697,16.5 L26.9354157,16.5 L26.9354157,15.5 L28.9129438,15.5 L28.9129438,17.5 L14.5758652,17.5 L14.5758652,15.5 L16.5533933,15.5 Z M26.9354157,14 L26.9354157,13 L25.4522697,13 L25.4522697,14 L18.0365393,14 L18.0365393,13 L16.5533933,13 L16.5533933,14 L13.0927191,14 L13.0927191,31 L30.3960899,31 L30.3960899,14 L26.9354157,14 Z" id="Fill-11" fill="#FFFFFF"></path>
            <polygon id="Fill-12" fill="#FFFFFF" points="19.5196854 22 21.0028315 22 21.0028315 20.5 19.5196854 20.5"></polygon>
            <polygon id="Fill-13" fill="#FFFFFF" points="22.4859775 22 23.9691236 22 23.9691236 20.5 22.4859775 20.5"></polygon>
            <polygon id="Fill-14" fill="#FFFFFF" points="25.4522697 22 26.9354157 22 26.9354157 20.5 25.4522697 20.5"></polygon>
            <polygon id="Fill-15" fill="#FFFFFF" points="19.5196854 25 21.0028315 25 21.0028315 23.5 19.5196854 23.5"></polygon>
            <polygon id="Fill-16" fill="#FFFFFF" points="22.4859775 25 23.9691236 25 23.9691236 23.5 22.4859775 23.5"></polygon>
            <polygon id="Fill-17" fill="#FFFFFF" points="25.4522697 25 26.9354157 25 26.9354157 23.5 25.4522697 23.5"></polygon>
            <polygon id="Fill-18" fill="#FFFFFF" points="19.5196854 28 21.0028315 28 21.0028315 26.5 19.5196854 26.5"></polygon>
            <polygon id="Fill-19" fill="#FFFFFF" points="16.5533933 25 18.0365393 25 18.0365393 23.5 16.5533933 23.5"></polygon>
            <polygon id="Fill-20" fill="#FFFFFF" points="16.5533933 28 18.0365393 28 18.0365393 26.5 16.5533933 26.5"></polygon>
            <polygon id="Fill-21" fill="#FFFFFF" points="22.4859775 28 23.9691236 28 23.9691236 26.5 22.4859775 26.5"></polygon>
        </g>
    </g>
</svg>