<?xml version="1.0" encoding="UTF-8"?>
<svg width="90px" height="90px" viewBox="0 0 90 90" version="1.1" xmlns="http://www.w3.org/2000/svg" xmlns:xlink="http://www.w3.org/1999/xlink">
    <!-- Generator: Sketch 51.2 (57519) - http://www.bohemiancoding.com/sketch -->
    <title>icon_faq_large</title>
    <desc>Created with Sketch.</desc>
    <defs></defs>
    <g id="icon_faq_large" stroke="none" stroke-width="1" fill="none" fill-rule="evenodd">
        <g id="Group-7" transform="translate(21.000000, 25.000000)" fill="#2F7777">
            <path d="M17.4146211,24.1287892 C17.3472868,24.1299173 17.2777803,24.1310455 17.2104459,24.1310455 C15.9213187,24.1310455 14.6528262,23.9561828 13.4386356,23.6098419 L13.0650385,23.5026681 L7.05273149,24.7086563 L9.06733219,21.5002087 L8.08229562,20.5119527 C6.21431007,18.638102 5.1836599,16.2498167 5.1836599,13.7870737 C5.1836599,8.08429508 10.5790972,3.44535824 17.2104459,3.44535824 C23.6854052,3.44535824 28.982013,7.87107546 29.2252856,13.3910944 C30.2863448,13.1417741 31.3865014,12.9815774 32.5203252,12.9206575 C32.286827,9.51252806 30.6892649,6.35146264 27.9578791,3.94287068 C25.0744479,1.40115748 21.257024,0 17.2104459,0 C13.1616959,0 9.34427191,1.40115748 6.46084072,3.94287068 C3.49921479,6.55452894 1.86907159,10.0506538 1.86907159,13.7870737 C1.86907159,16.7394321 2.91166818,19.588001 4.83178356,21.9413138 L0,29.6296296 L12.9444882,27.0348936 C14.2596804,27.3755937 15.6215722,27.5549689 16.9986685,27.5718911 C16.9975825,27.5075868 16.9954104,27.4432825 16.9954104,27.3801063 C16.9954104,26.2621135 17.1409395,25.1745806 17.4146211,24.1287892" id="Fill-30"></path>
            <path d="M41.6154733,28.9607835 C40.286053,28.9607835 39.2084418,27.8670182 39.2084418,26.5176691 C39.2084418,25.1683199 40.286053,24.0745546 41.6154733,24.0745546 C42.9448935,24.0745546 44.0214051,25.1683199 44.0214051,26.5176691 C44.0214051,27.8670182 42.9448935,28.9607835 41.6154733,28.9607835 M34.0271115,28.9607835 C32.6976912,28.9607835 31.6189804,27.8670182 31.6189804,26.5176691 C31.6189804,25.1683199 32.6976912,24.0745546 34.0271115,24.0745546 C35.3565318,24.0745546 36.4341429,25.1683199 36.4341429,26.5176691 C36.4341429,27.8670182 35.3565318,28.9607835 34.0271115,28.9607835 M26.4376501,28.9607835 C25.1082298,28.9607835 24.0317183,27.8670182 24.0317183,26.5176691 C24.0317183,25.1683199 25.1082298,24.0745546 26.4376501,24.0745546 C27.7670704,24.0745546 28.8457811,25.1683199 28.8457811,26.5176691 C28.8457811,27.8670182 27.7670704,28.9607835 26.4376501,28.9607835 M48.7804878,25.9763669 C48.7804878,18.9941266 42.1619761,13.3333333 33.9985218,13.3333333 C25.8339679,13.3333333 19.2165558,18.9941266 19.2165558,25.9763669 C19.2165558,32.9597232 25.8339679,38.6205165 33.9985218,38.6205165 C35.5852492,38.6205165 37.1125981,38.4062278 38.5464807,38.0089008 L48.7804878,40 L45.1023151,34.3224654 C47.3916889,32.0958719 48.7804878,29.1750722 48.7804878,25.9763669" id="Fill-31"></path>
        </g>
    </g>
</svg>