<?xml version="1.0" encoding="UTF-8"?>
<svg width="44px" height="44px" viewBox="0 0 44 44" version="1.1" xmlns="http://www.w3.org/2000/svg" xmlns:xlink="http://www.w3.org/1999/xlink">
    <!-- Generator: Sketch 51.2 (57519) - http://www.bohemiancoding.com/sketch -->
    <title>icon_faq</title>
    <desc>Created with Sketch.</desc>
    <defs></defs>
    <g id="icon_faq" stroke="none" stroke-width="1" fill="none" fill-rule="evenodd">
        <g id="Group-7">
            <path d="M43.9833888,22 C43.9833888,34.1505 34.2440629,44 22.2305798,44 C10.2166022,44 0.477770787,34.1505 0.477770787,22 C0.477770787,9.85 10.2166022,0 22.2305798,0 C34.2440629,0 43.9833888,9.85 43.9833888,22" id="Fill-29" fill="#2F7777"></path>
            <path d="M19.2449573,23.42385 C19.2143056,23.42435 19.1826652,23.42485 19.1520135,23.42485 C18.565182,23.42485 17.9877438,23.34735 17.4350247,23.19385 L17.2649573,23.14635 L14.5280584,23.68085 L15.4451371,22.25885 L14.9967326,21.82085 C14.1463955,20.99035 13.677227,19.93185 13.677227,18.84035 C13.677227,16.31285 16.1333169,14.25685 19.1520135,14.25685 C22.0995191,14.25685 24.5106202,16.21835 24.6213618,18.66485 C25.104373,18.55435 25.605182,18.48335 26.1213169,18.45635 C26.0150247,16.94585 25.2877888,15.54485 24.044418,14.47735 C22.7318337,13.35085 20.9940809,12.72985 19.1520135,12.72985 C17.3089573,12.72985 15.5712045,13.35085 14.2586202,14.47735 C12.9104404,15.63485 12.168373,17.18435 12.168373,18.84035 C12.168373,20.14885 12.6429798,21.41135 13.5170472,22.45435 L11.3175416,25.86185 L17.2100809,24.71185 C17.8087775,24.86285 18.4287326,24.94235 19.055609,24.94985 C19.0551146,24.92135 19.0541258,24.89285 19.0541258,24.86485 C19.0541258,24.36935 19.120373,23.88735 19.2449573,23.42385" id="Fill-30" fill="#FFFFFF"></path>
            <path d="M29.9219775,26.3247 C29.3242697,26.3247 28.8397753,25.8347 28.8397753,25.2302 C28.8397753,24.6257 29.3242697,24.1357 29.9219775,24.1357 C30.5196854,24.1357 31.0036854,24.6257 31.0036854,25.2302 C31.0036854,25.8347 30.5196854,26.3247 29.9219775,26.3247 M26.5102472,26.3247 C25.9125393,26.3247 25.4275506,25.8347 25.4275506,25.2302 C25.4275506,24.6257 25.9125393,24.1357 26.5102472,24.1357 C27.1079551,24.1357 27.5924494,24.6257 27.5924494,25.2302 C27.5924494,25.8347 27.1079551,26.3247 26.5102472,26.3247 M23.0980225,26.3247 C22.5003146,26.3247 22.0163146,25.8347 22.0163146,25.2302 C22.0163146,24.6257 22.5003146,24.1357 23.0980225,24.1357 C23.6957303,24.1357 24.1807191,24.6257 24.1807191,25.2302 C24.1807191,25.8347 23.6957303,26.3247 23.0980225,26.3247 M33.1433708,24.9877 C33.1433708,21.8597 30.1676854,19.3237 26.4973933,19.3237 C22.8266067,19.3237 19.8514157,21.8597 19.8514157,24.9877 C19.8514157,28.1162 22.8266067,30.6522 26.4973933,30.6522 C27.2107865,30.6522 27.8974831,30.5562 28.5421573,30.3782 L33.1433708,31.2702 L31.4896629,28.7267 C32.5189663,27.7292 33.1433708,26.4207 33.1433708,24.9877" id="Fill-31" fill="#FFFFFF"></path>
        </g>
    </g>
</svg>