<?xml version="1.0" encoding="UTF-8"?>
<svg width="90px" height="90px" viewBox="0 0 90 90" version="1.1" xmlns="http://www.w3.org/2000/svg" xmlns:xlink="http://www.w3.org/1999/xlink">
    <!-- Generator: Sketch 51.2 (57519) - http://www.bohemiancoding.com/sketch -->
    <title>icon_program_large</title>
    <desc>Created with Sketch.</desc>
    <defs></defs>
    <g id="icon_program_large" stroke="none" stroke-width="1" fill="none" fill-rule="evenodd">
        <g id="Group" transform="translate(40.000000, 25.000000)" fill="#E53935">
            <g id="Group-2">
                <path d="M0.780913188,40 L9.59925534,40 L9.59925534,13.1531198 L0.780913188,13.1531198 L0.780913188,40 Z M0,4.72412516 C0,3.42066284 0.488928082,2.30698019 1.46580443,1.38400296 C2.44268078,0.461025736 3.62041936,0 5,0 C6.37958064,0 7.55731922,0.461025736 8.53419557,1.38400296 C9.51205173,2.30698019 10,3.42066284 10,4.72412516 C10,6.02758748 9.51205173,7.14034438 8.53419557,8.06332161 C7.55731922,8.98722459 6.37958064,9.44825032 5,9.44825032 C3.62041936,9.44825032 2.44268078,8.98722459 1.46580443,8.06332161 C0.488928082,7.14034438 0,6.02758748 0,4.72412516 Z" id="Fill-3"></path>
            </g>
        </g>
    </g>
</svg>