<?xml version="1.0" encoding="UTF-8"?>
<svg width="90px" height="90px" viewBox="0 0 90 90" version="1.1" xmlns="http://www.w3.org/2000/svg" xmlns:xlink="http://www.w3.org/1999/xlink">
    <!-- Generator: Sketch 51.2 (57519) - http://www.bohemiancoding.com/sketch -->
    <title>icon_why_eduhk_large</title>
    <desc>Created with Sketch.</desc>
    <defs></defs>
    <g id="icon_why_eduhk_large" stroke="none" stroke-width="1" fill="none" fill-rule="evenodd">
        <g id="Group-6" transform="translate(26.000000, 23.000000)" fill="#7D57C1">
            <path d="M5.94488889,5.86502564 C5.94488889,9.10003419 8.61379639,11.7333333 11.8903322,11.7333333 C15.1679768,11.7333333 17.8346667,9.10003419 17.8346667,5.86502564 C17.8346667,2.62892308 15.1679768,0 11.8903322,0 C8.61379639,0 5.94488889,2.62892308 5.94488889,5.86502564" id="Fill-23"></path>
            <path d="M2.99054883,14.6815223 L14.8430094,14.6815223 C16.4945727,14.6815223 17.8346667,16.0010526 17.8346667,17.6297113 L17.8346667,26.4 C17.8346667,24.7713413 16.4945727,23.4507187 14.8430094,23.4507187 L2.99054883,23.4507187 C1.33787711,23.4507187 0,22.1300961 0,20.5025297 L0,11.7333333 C0,13.361992 1.33787711,14.6815223 2.99054883,14.6815223" id="Fill-24"></path>
            <path d="M34.1631618,32.2806495 L22.3132826,32.2806495 C20.6608163,32.2806495 19.3208889,33.6002781 19.3208889,35.229058 L19.3208889,44 C19.3208889,42.37122 20.6608163,41.050499 22.3132826,41.050499 L34.1631618,41.050499 C35.8167364,41.050499 37.1555556,39.729778 37.1555556,38.1020905 L37.1555556,29.3333333 C37.1555556,30.9610209 35.8167364,32.2806495 34.1631618,32.2806495" id="Fill-25"></path>
            <path d="M34.1631618,20.5473162 L22.3132826,20.5473162 C20.6608163,20.5473162 19.3208889,21.8680371 19.3208889,23.4968171 L19.3208889,32.2666667 C19.3208889,30.6378867 20.6608163,29.3171657 22.3132826,29.3171657 L34.1631618,29.3171657 C35.8167364,29.3171657 37.1555556,27.9964447 37.1555556,26.3698495 L37.1555556,17.6 C37.1555556,19.2276876 35.8167364,20.5473162 34.1631618,20.5473162" id="Fill-26"></path>
            <path d="M2.99054883,26.415948 L14.8430094,26.415948 C16.4945727,26.415948 17.8346667,27.7354783 17.8346667,29.3630446 L17.8346667,38.1333333 C17.8346667,36.5046747 16.4945727,35.184052 14.8430094,35.184052 L2.99054883,35.184052 C1.33787711,35.184052 0,33.8634294 0,32.2358631 L0,23.4666667 C0,25.0953253 1.33787711,26.415948 2.99054883,26.415948" id="Fill-27"></path>
            <path d="M32.6769396,8.81485564 L20.8270604,8.81485564 C19.1745941,8.81485564 17.8346667,10.1354783 17.8346667,11.7630446 L17.8346667,20.5333333 C17.8346667,18.9046747 19.1745941,17.584052 20.8270604,17.584052 L32.6769396,17.584052 C34.3305142,17.584052 35.6693333,16.2634294 35.6693333,14.6347707 L35.6693333,5.86666667 C35.6693333,7.49532534 34.3305142,8.81485564 32.6769396,8.81485564" id="Fill-28"></path>
        </g>
    </g>
</svg>