<?xml version="1.0" encoding="UTF-8"?>
<svg width="24px" height="24px" viewBox="0 0 24 24" version="1.1" xmlns="http://www.w3.org/2000/svg" xmlns:xlink="http://www.w3.org/1999/xlink">
    <!-- Generator: Sketch 51.2 (57519) - http://www.bohemiancoding.com/sketch -->
    <title>icon_youtube</title>
    <desc>Created with Sketch.</desc>
    <defs>
        <polygon id="path-1" points="0 0.485668085 20.1777702 0.485668085 20.1777702 13.2765957 0 13.2765957"></polygon>
        <polygon id="path-3" points="0.406978723 0.204765957 5.06093617 0.204765957 5.06093617 9.19026383 0.406978723 9.19026383"></polygon>
    </defs>
    <g id="icon_youtube" stroke="none" stroke-width="1" fill="none" fill-rule="evenodd">
        <g id="Group-10" transform="translate(2.000000, 0.000000)">
            <g id="Group-15">
                <path d="M9.87257872,7.78657021 C9.87257872,8.14759149 9.68925957,8.41414468 9.35734468,8.41414468 C9.01725957,8.41414468 8.81964255,8.13635745 8.81964255,7.78657021 L8.81964255,4.70282553 C8.81964255,4.34027234 8.98713191,4.07116596 9.33334468,4.07116596 C9.71121702,4.07116596 9.87257872,4.33210213 9.87257872,4.70282553 L9.87257872,7.78657021 Z M9.35734468,2.81295319 C8.27121702,2.81295319 7.55070638,3.5304 7.55070638,4.59405957 L7.55070638,7.84274043 C7.55070638,9.01057021 8.16245106,9.61874043 9.35734468,9.61874043 C10.3484936,9.61874043 11.1287489,8.95644255 11.1287489,7.84274043 L11.1287489,4.59405957 C11.1287489,3.55644255 10.3566638,2.81295319 9.35734468,2.81295319 Z" id="Fill-1" fill="#666666"></path>
                <path d="M12.0357957,16.3522213 C11.9530723,16.393583 11.8729021,16.4579234 11.7932426,16.5447319 L11.7932426,20.4781787 C11.8892426,20.580817 11.9816681,20.6558809 12.0715404,20.7003064 C12.2620085,20.7973277 12.5423489,20.8054979 12.6710298,20.635966 C12.739966,20.5466043 12.7736681,20.4020936 12.7736681,20.2009021 L12.7736681,16.9404766 C12.7736681,16.7275404 12.7307745,16.5656681 12.6480511,16.4558809 C12.5066043,16.2684766 12.2410723,16.2485617 12.0357957,16.3522213" id="Fill-3" fill="#666666"></path>
                <path d="M16.5993702,16.3128 C16.164817,16.3128 16.0749447,16.6186723 16.0749447,17.0532255 L16.0749447,17.6915234 L17.1120511,17.6915234 L17.1120511,17.0532255 C17.1120511,16.6253106 17.0201362,16.3128 16.5993702,16.3128" id="Fill-5" fill="#666666"></path>
                <g id="Group-9" transform="translate(0.000000, 10.518638)">
                    <mask id="mask-2" fill="white">
                        <use xlink:href="#path-1"></use>
                    </mask>
                    <g id="Clip-8"></g>
                    <path d="M18.3195574,8.15290213 L16.0747915,8.15290213 L16.0747915,9.34371064 C16.0747915,9.81809362 16.1146213,10.2271149 16.5874723,10.2271149 C17.0827915,10.2271149 17.1118979,9.89366809 17.1118979,9.34371064 L17.1118979,8.90507234 L18.3195574,8.90507234 L18.3195574,9.37945532 C18.3195574,10.5957957 17.7971745,11.3326468 16.5604085,11.3326468 C15.4395574,11.3326468 14.8671319,10.5161362 14.8671319,9.37945532 L14.8671319,6.54643404 C14.8671319,5.44958298 15.5901957,4.68924255 16.6492596,4.68924255 C17.775217,4.68924255 18.3195574,5.40464681 18.3195574,6.54643404 L18.3195574,8.15290213 Z M13.9811745,9.8538383 C13.9811745,10.6340936 13.6890894,11.2412426 12.9083234,11.2412426 C12.478366,11.2412426 12.1204085,11.0844766 11.7930894,10.6764766 L11.7930894,11.161583 L10.6078979,11.161583 L10.6078979,2.60328511 L11.7930894,2.60328511 L11.7930894,5.35868936 C12.0576,5.03596596 12.4176,4.76890213 12.8363234,4.76890213 C13.6962383,4.76890213 13.9811745,5.49554043 13.9811745,6.35137021 L13.9811745,9.8538383 Z M9.46304681,11.161583 L8.28908936,11.161583 L8.28908936,10.4645617 C8.07257872,10.7209021 7.84738723,10.9169872 7.61402553,11.0512851 C6.98134468,11.4138383 6.11274894,11.4061787 6.11274894,10.1249872 L6.11274894,4.84907234 L7.28670638,4.84907234 L7.28670638,9.68737021 C7.28670638,9.94166809 7.34849362,10.1132426 7.59870638,10.1132426 C7.8269617,10.1132426 8.14611064,9.82013617 8.28908936,9.64039149 L8.28908936,4.84907234 L9.46304681,4.84907234 L9.46304681,11.161583 Z M4.7616,11.161583 L3.44006809,11.161583 L3.44006809,3.84566809 L2.07155745,3.84566809 L2.07155745,2.60328511 L6.12857872,2.60328511 L6.12857872,3.84566809 L4.7616,3.84566809 L4.7616,11.161583 Z M17.3524085,0.485668085 L2.82577021,0.485668085 C1.26474894,0.485668085 -0.00010212766,1.75154043 -0.00010212766,3.3125617 L-0.00010212766,10.4512851 C-0.00010212766,12.0123064 1.26474894,13.2766468 2.82577021,13.2766468 L17.3524085,13.2766468 C18.9129191,13.2766468 20.1777702,12.0123064 20.1777702,10.4512851 L20.1777702,3.3125617 C20.1777702,1.75154043 18.9129191,0.485668085 17.3524085,0.485668085 Z" id="Fill-7" fill="#666666" mask="url(#mask-2)"></path>
                </g>
                <path d="M12.1752,2.86718298 L13.4078809,2.86718298 L13.4078809,7.94905532 C13.4078809,8.21611915 13.4717106,8.39535319 13.7362213,8.39535319 C13.9762213,8.39535319 14.3106894,8.08692766 14.4613277,7.89901277 L14.4613277,2.86820426 L15.6929872,2.86820426 L15.6929872,9.49577872 L14.4613277,9.49577872 L14.4613277,8.76454468 C13.9266894,9.39824681 13.4089021,9.59177872 13.0361362,9.59177872 C12.3758809,9.59177872 12.1752,9.06275745 12.1752,8.40811915 L12.1752,2.86718298 Z" id="Fill-10" fill="#666666"></path>
                <g id="Group-14" transform="translate(2.553191, 0.305872)">
                    <mask id="mask-4" fill="white">
                        <use xlink:href="#path-3"></use>
                    </mask>
                    <g id="Clip-13"></g>
                    <polygon id="Fill-12" fill="#666666" mask="url(#mask-4)" points="1.80459574 0.204561702 2.76204255 3.79588085 3.65157447 0.204561702 5.06093617 0.204561702 3.44578723 5.54532766 3.44578723 9.19026383 2.05787234 9.19026383 2.05787234 5.54532766 0.406978723 0.204561702"></polygon>
                </g>
            </g>
        </g>
    </g>
</svg>