<svg xmlns="http://www.w3.org/2000/svg" viewBox="0 0 56.7 20.3"><defs><style>.cls-1{fill:#d4483e;}.cls-2{fill:#fff;}</style></defs><title>Asset 1</title><g id="Layer_2" data-name="Layer 2"><g id="Layer_1-2" data-name="Layer 1"><polygon class="cls-1" points="56.7 20.3 9.7 20.3 0 10 9.7 0 56.7 0 56.7 20.3"/><path class="cls-2" d="M17.6,14.9V5.1h2.6l2,3.6A28.3,28.3,0,0,1,23.8,12h0A36.2,36.2,0,0,1,23.7,8V5.1h2v9.7H23.4l-2.1-3.8a36.3,36.3,0,0,1-1.7-3.4h0c.1,1.3.1,2.7.1,4.3v2.9Z"/><path class="cls-2" d="M33.4,10.8H29.8v2.3h4v1.8H27.6V5.1h6V6.9H29.8V9h3.6Z"/><path class="cls-2" d="M37,14.9,34.7,5.1H37l.7,4c.2,1.2.4,2.4.6,3.4h0c.2-1.1.4-2.2.6-3.4l.8-4h2.3L43,9.2c.2,1.1.4,2.2.5,3.3h0c.1-1.1.4-2.2.6-3.4l.8-4h2.2l-2.5,9.7H42.2l-.8-4.2c-.2-1-.3-1.9-.5-3h0c-.2,1.1-.3,2-.6,3l-.9,4.2Z"/></g></g></svg>