<?xml version="1.0" standalone="no"?>
<!DOCTYPE svg PUBLIC "-//W3C//DTD SVG 20010904//EN"
 "http://www.w3.org/TR/2001/REC-SVG-20010904/DTD/svg10.dtd">
<svg version="1.0" xmlns="http://www.w3.org/2000/svg"
 width="512.000000pt" height="512.000000pt" viewBox="0 0 512.000000 512.000000"
 preserveAspectRatio="xMidYMid meet">
<metadata>
Created by potrace 1.11, written by Peter Selinger 2001-2013
</metadata>
<g transform="translate(0.000000,512.000000) scale(0.100000,-0.100000)"
fill="#000000" stroke="none">
<path d="M1654 5105 c-198 -43 -364 -167 -462 -345 -97 -178 -104 -426 -17
-605 48 -97 68 -125 135 -192 132 -132 305 -205 481 -204 374 3 669 292 678
666 8 314 -208 597 -514 675 -72 18 -229 21 -301 5z"/>
<path d="M4674 4353 c-45 -135 -151 -232 -274 -249 -22 -3 -368 -7 -768 -8
l-727 -2 -55 -26 c-81 -38 -134 -89 -172 -166 l-33 -67 -2 -530 c-1 -470 1
-524 13 -477 25 96 94 174 193 220 l56 26 730 2 c402 1 748 4 770 8 106 17
215 109 256 214 22 56 22 67 23 565 1 279 0 507 -2 507 -1 0 -5 -8 -8 -17z"/>
<path d="M433 3180 l2 -525 27 -55 c43 -91 113 -154 203 -185 45 -16 118 -18
795 -19 l745 -1 63 -29 c77 -36 154 -115 179 -187 10 -27 20 -49 23 -49 7 0 3
931 -4 992 -12 110 -91 215 -199 264 l-62 29 -740 1 c-671 1 -746 2 -795 18
-105 33 -184 111 -222 219 -17 51 -18 45 -15 -473z"/>
<path d="M4670 2985 c0 -27 -40 -95 -83 -143 -26 -28 -67 -57 -107 -75 l-65
-31 -745 -1 c-410 -1 -756 -5 -770 -9 -96 -29 -182 -102 -227 -194 l-28 -57
-1 -530 c-1 -291 2 -516 6 -500 26 113 112 210 221 251 39 15 122 17 779 19
404 1 750 5 768 9 97 19 185 93 234 195 l32 66 1 503 c0 277 -3 506 -7 509 -5
2 -8 -3 -8 -12z"/>
<path d="M431 1834 c0 -570 0 -570 69 -661 41 -55 114 -107 173 -125 31 -9
230 -13 772 -14 817 -1 795 1 890 -72 51 -39 112 -125 122 -175 3 -15 8 -29
12 -31 5 -4 6 820 0 971 -5 140 -92 255 -232 307 -46 17 -100 18 -775 19 -555
0 -737 3 -774 13 -119 31 -210 120 -245 239 -9 32 -11 -65 -12 -471z"/>
<path d="M4664 1603 c-35 -94 -94 -159 -184 -202 l-55 -26 -455 -3 c-1106 -6
-1070 -5 -1122 -29 -96 -44 -176 -142 -196 -240 -13 -64 -13 -1049 0 -1008 32
101 97 178 187 223 l56 27 765 5 765 5 49 24 c69 32 98 55 138 109 73 98 71
79 72 650 1 281 1 512 0 512 -2 0 -10 -21 -20 -47z"/>
</g>
</svg>
